/* XPM */
static char *result[] = {
/* columns rows colors chars-per-pixel */
"160 18 24 1 ",
"  c #1F0E0E",
". c #1A1515",
"X c #371B1B",
"o c #222222",
"O c gray14",
"+ c #2F2727",
"@ c #482E2E",
"# c #413A3A",
"$ c #C83232",
"% c #C93232",
"& c #C93333",
"* c #CA3232",
"= c #CB3333",
"- c #CC3333",
"; c #A27C7C",
": c #A27D7D",
"> c #A37D7D",
", c #A47E7E",
"< c #A57E7E",
"1 c #DFDDDD",
"2 c #EFEFEF",
"3 c #F5F3F3",
"4 c white",
"5 c None",
/* pixels */
"5555555555555555555555555555555555555555555555555555555555555555555555555555555555555555555555555555555555555555555555555555555555555555555555555555555555555555",
"5555555555555555555555555555555555555555555555555555555555555555555555555555555555555555555555555555555555555555555555555555555555555555555555555555555555555555",
"5555555555555555555555555555555555555555555555555555555555555555555555555555555555555555555555555555555555555555555555555555555555555555555555555555555555555555",
"555ooo555ooo555555555ooo555ooo555555555ooo555ooo555555555ooo555ooo5555555555ooo555ooo555555555ooo555ooo555555555ooo555ooo555555555ooo555ooo555555555OOO555OOO555",
"55o---o5o---@5555555o---o5o---@5555555o---o5o---@5555555o---o5o---@55555555o---o5o---@5555555o---o5o---@5555555o---o5o---@5555555o---o5o---@5555555O<<<O5O<<<#55",
"5o1----X-----o55555o1----X-----o55555o1----X-----o55555o1----X-----o555555o1----X-----o55555o1----X-----o55555o1----X-----o55555o1----X-----o55555O2<<<<+<<<<<O5",
"5o3--------*-o55555o3--------*-o55555o3--------*-o55555o3--------*-o555555o3--------*-o55555o3--------*-o55555o3--------*-o55555o3--------*-o55555O4<<<<<<<<><O5",
"5o------%--*-o55555o------%--*-o55555o------%--*-o55555o------%--*-o555555o------%--*-o55555o------%--*-o55555o------%--*-o55555o------%--*-o55555O<<<<<<;<<><O5",
"5 ---------$-o55555 ---------$-o55555 ---------$-o55555 ---------$-o555555 ---------$-o55555 ---------$-o55555 ---------$-o55555 ---------$-o55555.<<<<<<<<<;<O5",
"55o---------o5555555o---------o5555555o---------o5555555o---------o55555555o---------o5555555o---------o5555555o---------o5555555o---------o5555555O<<<<<<<<<O55",
"555o-----*-o555555555o-----*-o555555555o-----*-o555555555o-----*-o5555555555o-----*-o555555555o-----*-o555555555o-----*-o555555555o-----*-o555555555O<<<<<><O555",
"5555o-=-&-o55555555555o-=-&-o55555555555o-=-&-o55555555555o-=-&-o555555555555o-=-&-o55555555555o-=-&-o55555555555o-=-&-o55555555555o-=-&-o55555555555O<,<:<O5555",
"55555o---o5555555555555o---o5555555555555o---o5555555555555o---o55555555555555o---o5555555555555o---o5555555555555o---o5555555555555o---o5555555555555O<<<O55555",
"555555o-o555555555555555o-o555555555555555o-o555555555555555o-o5555555555555555o-o555555555555555o-o555555555555555o-o555555555555555o-o555555555555555O<O555555",
"5555555o55555555555555555o55555555555555555o55555555555555555o555555555555555555o55555555555555555o55555555555555555o55555555555555555o55555555555555555O5555555",
"5555555555555555555555555555555555555555555555555555555555555555555555555555555555555555555555555555555555555555555555555555555555555555555555555555555555555555",
"5555555555555555555555555555555555555555555555555555555555555555555555555555555555555555555555555555555555555555555555555555555555555555555555555555555555555555",
"5555555555555555555555555555555555555555555555555555555555555555555555555555555555555555555555555555555555555555555555555555555555555555555555555555555555555555"
};
