/* XPM */
static char *result[] = {
/* columns rows colors chars-per-pixel */
"160 18 13 1 ",
"  c #1F0E0E",
". c #371B1B",
"X c #222222",
"o c #482E2E",
"O c #C83232",
"+ c #C93232",
"@ c #C93333",
"# c #CA3232",
"$ c #CB3333",
"% c #CC3333",
"& c #DFDDDD",
"* c #F5F3F3",
"= c None",
/* pixels */
"================================================================================================================================================================",
"================================================================================================================================================================",
"================================================================================================================================================================",
"===XXX===XXX=========XXX===XXX=========XXX===XXX=========XXX===XXX==========XXX===XXX=========XXX===XXX=========XXX===XXX=========XXX===XXX=========XXX===XXX===",
"==X%%%X=X%%%o=======X%%%X=X%%%o=======X%%%X=X%%%o=======X%%%X=X%%%o========X%%%X=X%%%o=======X%%%X=X%%%o=======X%%%X=X%%%o=======X%%%X=X%%%o=======X%%%X=X%%%o==",
"=X&%%%%.%%%%%X=====X&%%%%.%%%%%X=====X&%%%%.%%%%%X=====X&%%%%.%%%%%X======X&%%%%.%%%%%X=====X&%%%%.%%%%%X=====X&%%%%.%%%%%X=====X&%%%%.%%%%%X=====X&%%%%.%%%%%X=",
"=X*%%%%%%%%#%X=====X*%%%%%%%%#%X=====X*%%%%%%%%#%X=====X*%%%%%%%%#%X======X*%%%%%%%%#%X=====X*%%%%%%%%#%X=====X*%%%%%%%%#%X=====X*%%%%%%%%#%X=====X*%%%%%%%%#%X=",
"=X%%%%%%+%%#%X=====X%%%%%%+%%#%X=====X%%%%%%+%%#%X=====X%%%%%%+%%#%X======X%%%%%%+%%#%X=====X%%%%%%+%%#%X=====X%%%%%%+%%#%X=====X%%%%%%+%%#%X=====X%%%%%%+%%#%X=",
"= %%%%%%%%%O%X===== %%%%%%%%%O%X===== %%%%%%%%%O%X===== %%%%%%%%%O%X====== %%%%%%%%%O%X===== %%%%%%%%%O%X===== %%%%%%%%%O%X===== %%%%%%%%%O%X===== %%%%%%%%%O%X=",
"==X%%%%%%%%%X=======X%%%%%%%%%X=======X%%%%%%%%%X=======X%%%%%%%%%X========X%%%%%%%%%X=======X%%%%%%%%%X=======X%%%%%%%%%X=======X%%%%%%%%%X=======X%%%%%%%%%X==",
"===X%%%%%#%X=========X%%%%%#%X=========X%%%%%#%X=========X%%%%%#%X==========X%%%%%#%X=========X%%%%%#%X=========X%%%%%#%X=========X%%%%%#%X=========X%%%%%#%X===",
"====X%$%@%X===========X%$%@%X===========X%$%@%X===========X%$%@%X============X%$%@%X===========X%$%@%X===========X%$%@%X===========X%$%@%X===========X%$%@%X====",
"=====X%%%X=============X%%%X=============X%%%X=============X%%%X==============X%%%X=============X%%%X=============X%%%X=============X%%%X=============X%%%X=====",
"======X%X===============X%X===============X%X===============X%X================X%X===============X%X===============X%X===============X%X===============X%X======",
"=======X=================X=================X=================X==================X=================X=================X=================X=================X=======",
"================================================================================================================================================================",
"================================================================================================================================================================",
"================================================================================================================================================================"
};
