/* XPM */
static char *result[] = {
/* columns rows colors chars-per-pixel */
"32 21 132 2 ",
"   c black",
".  c #000100",
"X  c #010001",
"o  c #000101",
"O  c #000301",
"+  c #040003",
"@  c #080107",
"#  c #0B0704",
"$  c #020904",
"%  c #020A04",
"&  c #020A05",
"*  c #020D06",
"=  c #090108",
"-  c #0C0208",
";  c #0F020C",
":  c #100504",
">  c #110A06",
",  c #120A06",
"<  c #130B07",
"1  c #190907",
"2  c #031108",
"3  c #061108",
"4  c #041309",
"5  c #05190B",
"6  c #051C0D",
"7  c #051D0D",
"8  c #1B100A",
"9  c #1D110B",
"0  c #190314",
"q  c #161217",
"w  c #200B08",
"e  c #220B09",
"r  c #210B0A",
"t  c #240C0A",
"y  c #260D0A",
"u  c #21140D",
"i  c #36130F",
"p  c #2E0D15",
"a  c #2F1B11",
"s  c #371116",
"d  c #301C13",
"f  c #331E14",
"g  c #361F14",
"h  c #062210",
"j  c #062310",
"k  c #072812",
"l  c #082E15",
"z  c #0F2919",
"x  c #0B3D1C",
"c  c #0B3F1D",
"v  c #0C3F1D",
"b  c #3A2217",
"n  c #3D2418",
"m  c #352E1B",
"M  c #280520",
"N  c #2B0623",
"B  c #310728",
"V  c #390A28",
"C  c #431713",
"Z  c #4E1B16",
"A  c #5B1F19",
"S  c #4B2B1D",
"D  c #4C2C1D",
"F  c #5E211A",
"G  c #502F1F",
"H  c #410E29",
"J  c #4F1625",
"K  c #58172B",
"L  c #4F3E25",
"P  c #533020",
"I  c #5A3823",
"U  c #75242E",
"Y  c #613925",
"T  c #623926",
"R  c #623A26",
"E  c #6B3F29",
"W  c #6C3F2A",
"Q  c #15491D",
"!  c #194D1D",
"~  c #0D4721",
"^  c #0F5125",
"/  c #0F5226",
"(  c #185422",
")  c #1F5F24",
"_  c #105828",
"`  c #115B2A",
"'  c #195C32",
"]  c #224F29",
"[  c #275C30",
"{  c #2D513C",
"}  c #12632E",
"|  c #13662F",
" . c #146B31",
".. c #146D32",
"X. c #157234",
"o. c #167636",
"O. c #167837",
"+. c #1C713C",
"@. c #2A7C39",
"#. c #31733C",
"$. c #70422B",
"%. c #316E42",
"&. c #97342A",
"*. c #9B362B",
"=. c #A23733",
"-. c #A63933",
";. c #A43D30",
":. c #AB3A33",
">. c #934D34",
",. c #8C5336",
"<. c #94583A",
"1. c #9F5E3E",
"2. c #B14433",
"3. c #BA4134",
"4. c #BB4134",
"5. c #B84234",
"6. c #BC4134",
"7. c #BC4234",
"8. c #C04938",
"9. c #A76341",
"0. c #A96441",
"q. c #AD6643",
"w. c #BC6F49",
"e. c #CC5D43",
"r. c #CD7950",
"t. c #248436",
"y. c #DC8255",
"u. c #DD8355",
"i. c #E18557",
"p. c #E58758",
"a. c #E78859",
"s. c None",
/* pixels */
"s.s.s.s.s.s.s.s.s.s.s.s.s.s.s.s.s.  d s.s.: e s.s.s.s.s.s.s.s.s.",
"s.s.s.s.s.s.s.s.s.s.s.s.s.s.s.s.s.  r.1.  t F i s.s.s.7.s.s.s.s.",
"s.s.s.s.s.s.s.s.s.s.s.s.s.s.s.s.s.s.  p.<.  Z &.1 s.s.3.s.s.3.4.",
"s.s.s.s.s.s.s.s.s.s.s.s.s.s.s.s.s.s.  y.              s.s.7.4.4.",
"s.s.s.s.s.s.s.s.s.s.s.s.s.s.s.s.s.s.        > u u u 9   s.6.s.s.",
"s.s.s.s.s.s.s.s.s.s.s.s.s.s.s.s.s.s.      f w.a.a.e.P s.s.s.s.s.",
"s.s.s.s.s.s.s.s.s.s.s.s.s.s.s.s.s.%       P a.D q.8.;.6 >.3.s.s.",
"s.s.s.s.s.s.s.s.s.s.s.s.s.s.s.s.s.5     8 9.a.D 4 R I s.s.s.4.4.",
"s.s.s.  s.s.s.s.s.s.s.s.s.s.s.s.7       a a.i.S s.s.s.s.5.s.s.s.",
"s.s.      o   O .   o                   a a.$.s.s.s.s.s.2.s.s.s.",
"s.s.s.                                    P $.s.s.s.s.s.s.s.s.s.",
"s.s.s..                           G #     w s z  .O.s.s.s.s.s.s.",
"s.s.s..                           0.u.    C U ; } O.O.O.s.s.s.s.",
"s.s.s.$                           Y y.  y -.K ; } O.O.O.s.s.s.s.",
"s.s.j         X @ +                 <   - V B ; } O.O.s.s.s.s.s.",
"s.&         + 0 q / O.x l l h         X.= B B ; ' +.O.s.s.s.s.s.",
"s.    W b   N M k O.O.O.O.O._       ` X.= B B ; { %.s.s.s.s.s.s.",
"  , E L [ 3 B J k O.O.O.O.O._ T T    .X.= H p ] #.@.s.s.s.s.s.s.",
"  g ,.! t.2 =.*.k O.O.O.O...m r.T ~ o.X.r :.A ) t.s.s.s.s.s.s.s.",
", a.,.Q O.2 4.*.k O.O.O.O. .n a.T _ O.X.y 4.A ( s.s.s.s.s.s.s.s.",
", a.,.v O.* 4.*.j O.O.O.O.| n a.T ^ O.X.y 4.A c s.s.s.s.s.s.s.s."
};
