/* XPM */
static char *result[] = {
/* columns rows colors chars-per-pixel */
"32 21 136 2 ",
"   c black",
".  c #000201",
"X  c #010503",
"o  c #060004",
"O  c #0E0503",
"+  c #020C06",
"@  c #020D06",
"#  c #030D06",
"$  c #07070D",
"%  c #06070F",
"&  c #0B0109",
"*  c #06080D",
"=  c #070B0E",
"-  c #100906",
";  c #140B07",
":  c #031007",
">  c #031008",
",  c #07120B",
"<  c #041409",
"1  c #04160A",
"2  c #051C0D",
"3  c #14160C",
"4  c #1B100A",
"5  c #1F120D",
"6  c #141A0B",
"7  c #080A11",
"8  c #190314",
"9  c #1A0315",
"0  c #1C0416",
"q  c #1F091A",
"w  c #0E101D",
"e  c #260D0A",
"r  c #27170E",
"t  c #27170F",
"y  c #26051F",
"u  c #261B10",
"i  c #271C11",
"p  c #3B1411",
"a  c #0E2F19",
"s  c #093117",
"d  c #093217",
"f  c #131627",
"g  c #101C24",
"h  c #16192E",
"j  c #181C32",
"k  c #191D34",
"l  c #280B28",
"z  c #350B23",
"x  c #350A25",
"c  c #310728",
"v  c #2D1437",
"b  c #2D1538",
"n  c #1F243E",
"m  c #223327",
"M  c #303F22",
"N  c #431713",
"B  c #4F1B16",
"V  c #45281B",
"C  c #5D201A",
"Z  c #67241D",
"A  c #533020",
"S  c #543120",
"D  c #503F29",
"F  c #742820",
"G  c #623926",
"H  c #602E38",
"J  c #0E4021",
"K  c #0E4A22",
"L  c #0E4C23",
"P  c #0E4D23",
"I  c #0E4E24",
"U  c #184326",
"Y  c #144C24",
"T  c #1E442E",
"R  c #0F5125",
"E  c #0F5427",
"W  c #155628",
"Q  c #16512D",
"!  c #115C2A",
"~  c #125C2B",
"^  c #165E31",
"/  c #12642E",
"(  c #1E623D",
")  c #1B693B",
"_  c #167636",
"`  c #167737",
"'  c #167837",
"]  c #316C3F",
"[  c #317D39",
"{  c #317E39",
"}  c #74442C",
"|  c #75482E",
" . c #4A6D3F",
".. c #3D3447",
"X. c #473C54",
"o. c #275940",
"O. c #3B5944",
"+. c #347142",
"@. c #524053",
"#. c #604854",
"$. c #953329",
"%. c #9C362B",
"&. c #98332F",
"*. c #9F372D",
"=. c #833230",
"-. c #9C3432",
";. c #A0372D",
":. c #A93A2F",
">. c #A13733",
",. c #834E33",
"<. c #83443E",
"1. c #895135",
"2. c #8C5336",
"3. c #BB4134",
"4. c #885B57",
"5. c #895C57",
"6. c #905F57",
"7. c #B35947",
"8. c #986357",
"9. c #9D6557",
"0. c #A16247",
"q. c #B06945",
"w. c #BF6846",
"e. c #B26D50",
"r. c #B47158",
"t. c #BF7658",
"y. c #C4744C",
"u. c #CA7B58",
"i. c #D67F52",
"p. c #D17E59",
"a. c #248034",
"s. c #629345",
"d. c #E18557",
"f. c #E48658",
"g. c #E78859",
"h. c None",
/* pixels */
"h.h.h.h.O h.h.- h.h.h.h.h.h.h.h.h.h.h.h.h.h.h.h.h.h.h.h.h.h.h.h.",
"h.h.h.C p   } V h.h.h.h.h.h.h.h.h.h.h.h.h.h.h.h.h.h.h.h.h.h.h.h.",
"h.h.  $.h.  q.h.h.h.h.h.h.h.h.h.h.h.h.h.h.h.h.h.h.h.h.h.h.h.h.h.",
"h.  ;.=.$ e.0.5 h.h.h.h.h.h.h.h.h.h.h.h.h.h.h.h.h.h.h.h.h.h.h.h.",
"h.  H $ $ $ @.G   h.h.h.h.h.h.h.h.h.h.h.h.h.h.h.h.h.h.h.h.h.h.h.",
"h.f $ $ $ $ $ $ $     h.h.h.h.h.h.h.h.h.h.h.h.h.h.h.h.h.h.h.h.h.",
"    ..g.6.$ $ $ $ $ $ 7 $ h.h.h.h.h.h.h.h.h.h.h.h.h.h.h.h.h.h.h.",
"; } i.g.g.g.p.4.$ $ $ $ $ $ $ g 2 + h.h.h.h.h.h.h.h.h.h.h.h.h.h.",
"h.r r r r r S g.u.$ $ $ $ $ $ $ $ $ $ > X h.h.h.h.h.  h.h.h.h.h.",
"h.h.h.h.h.h.h.| f.$ $ $ $ $ $ $ $ $ $ $ $ $ $ * h.  $ h h.h.h.h.",
"h.h.h.h.h.h.h.1 <.r.#.4.$ $ $ $ $ $ $ $ $ $ $ $ $ $ $ h h.h.h.h.",
"h.h.h.' ' ' ' s &.r.9.g.$ $ $ $ $ $ $ $ $ $ $ $ $ $ $ = h.h.h.h.",
"h.' ' ' ' ' ! 0 -.$ 5.$ $ $ $ $ $ $ $ $ $ $ $ $ $ $ $ . h.h.h.h.",
"h.' ' ' ' ' a y c l $ $ $ $ $ $ % % % % % $ $ $ $ $ $ w h.h.h.h.",
"h.' ' ' ' ' & c c o $ t.8.f $ $ $ / / / / J $ $ $ $ $ h h.h.h.h.",
"h.h.' ' ' @ >.x , Q 2.g.4 P ' ' ' ' ' ' ' R q c v $ $ k h.h.h.h.",
"h.h.' ' ' # 3.B o. .D d.y.M ` ' ' ' ' ' ' ' L 9 c b $ $ j h.h.h.",
"h.h.h.' ' ^ N :.3 s.O.u g.A _ ' ' ' ' ' ' ' ' ~ 8 c z 7.X.n m h.",
"h.h.h.h.h.' i %.6 ] +.) < E ' ' ' ' ' ' ' ' ' ' I < *.3.w.g.1.U ",
"h.h.h.h.h.h.h.d a.{ [ ( ' ' ' ' ' ' ' ' ' ' ' ' ' K Z 3.e ,.g.t ",
"h.h.h.h.h.h.h.h.h.h.h.' ' ' ' ' ' ' ' ' ' h.h.h.h.: 3.F Y T r W "
};
