/* XPM */
static char *result[] = {
/* columns rows colors chars-per-pixel */
"32 32 42 1 ",
"  c #1C1C1F",
". c #28282B",
"X c #2C2C30",
"o c #402E30",
"O c #553A3A",
"+ c #753030",
"@ c #783A3D",
"# c #215E3F",
"$ c #1E623D",
"% c #1B693B",
"& c #1E6F3D",
"* c #167837",
"= c #187639",
"- c #316C3F",
"; c #32763D",
": c #317D39",
"> c #317E39",
", c #323942",
"< c #393940",
"1 c #236041",
"2 c #2A6145",
"3 c #316C45",
"4 c #347142",
"5 c #4B555E",
"6 c #634440",
"7 c #634D49",
"8 c #715148",
"9 c #785A53",
"0 c #42634C",
"q c #557E49",
"w c #435361",
"e c #4B6275",
"r c #8C3430",
"t c #8A3E3E",
"y c #A14343",
"u c #B35249",
"i c #82604F",
"p c #2E8E35",
"a c #629345",
"s c #BA8A79",
"d c #DEA48A",
"f c None",
/* pixels */
"ffffffffffffffffffffffffffffffff",
"ffffffffffffffOOOOffffffffffffff",
"ffffffffffffoo688iOOffffffffffff",
"fffffffffffo6OOOO8iiOfffffffffff",
"ffffffffffo688OO888iiOffffffffff",
"ffffffffffo886866688iOffffffffff",
"fffffffffo68668668688Offffffffff",
"fffffffffo88O8iO8iO68o*fffffffff",
"ffffffffffoOOOOdOOO66Oofffffffff",
"fffffffffoOs5ddd5dO6O8o*ffffffff",
"fffffffffoO95ddd5ddO6Oo**fffffff",
"fffffffff+r9ddddddd9r+***fffffff",
"ffffffffo86o99sss99o68o**fffffff",
"ffffffffooof@yuuuuu@ooo**fffffff",
"fffffffffff7@uuuuuuu@***ffffffff",
"ffffffffff7s@uuuutuu@=&=ffffffff",
"ffffffffff7s@uuu9ddu@3q2ffffffff",
"fffffffffff7@yyy9dd@*0a;ffffffff",
"ffffffffffff,eeee99*%4-pffffffff",
"ffffffffffff,w,,ee,*$:>fffffffff",
"ffffffffffff .  <X **#1fffffffff",
"ffffffffffffffffffffffffffffffff",
"ffffffffffffffffffffffffffffffff",
"ffffffffffffffffffffffffffffffff",
"ffffffffffffffffffffffffffffffff",
"ffffffffffffffffffffffffffffffff",
"ffffffffffffffffffffffffffffffff",
"ffffffffffffffffffffffffffffffff",
"ffffffffffffffffffffffffffffffff",
"ffffffffffffffffffffffffffffffff",
"ffffffffffffffffffffffffffffffff",
"ffffffffffffffffffffffffffffffff"
};
