/* XPM */
static char *result[] = {
/* columns rows colors chars-per-pixel */
"32 32 41 1 ",
"  c #1C1C1F",
". c #28282B",
"X c #2C2C30",
"o c #402E30",
"O c #553A3A",
"+ c #753030",
"@ c #783A3D",
"# c #215E3F",
"$ c #1E623D",
"% c #1B693B",
"& c #1E6F3D",
"* c #167837",
"= c #187639",
"- c #316C3F",
"; c #32763D",
": c #317D39",
"> c #317E39",
", c #323942",
"< c #393940",
"1 c #236041",
"2 c #2A6145",
"3 c #347142",
"4 c #4B555E",
"5 c #634440",
"6 c #634D49",
"7 c #715148",
"8 c #785A53",
"9 c #42634C",
"0 c #557E49",
"q c #435361",
"w c #4B6275",
"e c #8C3430",
"r c #8A3E3E",
"t c #A14343",
"y c #B35249",
"u c #82604F",
"i c #2E8E35",
"p c #629345",
"a c #BA8A79",
"s c #DEA48A",
"d c None",
/* pixels */
"dddddddddddddddddddddddddddddddd",
"ddddddddddddddOOOOdddddddddddddd",
"ddddddddddddOOu775oodddddddddddd",
"dddddddddddOuu7OOOO5oddddddddddd",
"ddddddddddOuu777OO775odddddddddd",
"ddddddddddOu775557577odddddddddd",
"ddddddddddO77575575575oddddddddd",
"ddddddddddo75Ou7Ou7O77oddddddddd",
"dddddddddoO55OOOsOOOOo*ddddddddd",
"dddddddddo7O5Os4sss4aOo*dddddddd",
"dddddddddoO5Oss4sss48Oo**ddddddd",
"dddddddddd+e8sssssss8e+**ddddddd",
"dddddddddo75o88aaa88o57o*ddddddd",
"dddddddddooo@yyyyyt@*ooo*ddddddd",
"ddddddddddd@yyyyyyy@6***dddddddd",
"ddddddddddd@yyryyyy@a6&=dddddddd",
"ddddddddddd@yss8yyy@a602dddddddd",
"ddddddddddd*@ss8ttt@69p;dddddddd",
"dddddddddddd*88wwww,%3-idddddddd",
"dddddddddddd*,ww,,q,$:>ddddddddd",
"dddddddddddd* X<  . *#1ddddddddd",
"dddddddddddddddddddddddddddddddd",
"dddddddddddddddddddddddddddddddd",
"dddddddddddddddddddddddddddddddd",
"dddddddddddddddddddddddddddddddd",
"dddddddddddddddddddddddddddddddd",
"dddddddddddddddddddddddddddddddd",
"dddddddddddddddddddddddddddddddd",
"dddddddddddddddddddddddddddddddd",
"dddddddddddddddddddddddddddddddd",
"dddddddddddddddddddddddddddddddd",
"dddddddddddddddddddddddddddddddd"
};
