/* XPM */
static char *result[] = {
/* columns rows colors chars-per-pixel */
"32 32 16 1 ",
"  c #3E3E3C",
". c #207051",
"X c #2E7358",
"o c #387D52",
"O c #387E58",
"+ c #50755F",
"@ c #06884A",
"# c #338D4D",
"$ c #338E4D",
"% c #378750",
"& c #3B8255",
"* c #648F5D",
"= c #70A25A",
"- c gray76",
"; c #E6E6E6",
": c None",
/* pixels */
"::::::::::::::::::::::::::::::::",
"::::::::::::::::::::::::::::::::",
"::::::::::::::::::::::::::::::::",
"::::::::::::::::::::::::::::::::",
"::::::::::::::::::::::::::::::::",
"::::::::::::::::::::::::::::::::",
"::::::::::::::::::::::::::::::::",
"::::::::::::::::::::::::::::::::",
"::::::::::::::::::::::::::::::::",
"::::::::::::::::::::::::::::::::",
":::::::  :::::::::::::::::::::::",
"::::::: ; :::::::  ::  :::::::::",
":::::::: ; ::     -    :::::::::",
"::::::::: ;  ;;;; - ;; :::::::::",
":::::::::: ;;;;;; -  -- ::::::::",
"::::::::::: ;;;;; -;;;; ::::::::",
"::::::::X*O ;;;;; ----- ::::::::",
"::::::::%=+ ;;   ;;;;  :::::::::",
":::::::::o& ;     ;-; @:::::::::",
":::::::::$# -   @ ; ; ::::::::::",
"::::::::::.  @@ @  @  ::::::::::",
"::::::::::::::::::::::::::::::::",
"::::::::::::::::::::::::::::::::",
"::::::::::::::::::::::::::::::::",
"::::::::::::::::::::::::::::::::",
"::::::::::::::::::::::::::::::::",
"::::::::::::::::::::::::::::::::",
"::::::::::::::::::::::::::::::::",
"::::::::::::::::::::::::::::::::",
"::::::::::::::::::::::::::::::::",
"::::::::::::::::::::::::::::::::",
"::::::::::::::::::::::::::::::::"
};
