/* XPM */
static char *result[] = {
/* columns rows colors chars-per-pixel */
"32 32 14 1 ",
"  c #3E3E3C",
". c #127A4D",
"X c #207051",
"o c #227253",
"O c #387D52",
"+ c #06884A",
"@ c #15964A",
"# c #338D4D",
"$ c #338E4D",
"% c #279D4A",
"& c #3B8255",
"* c gray76",
"= c #E6E6E6",
"- c None",
/* pixels */
"--------------------------------",
"--------------------------------",
"--------------------------------",
"--------------------------------",
"--------------------------------",
"--------------------------------",
"--------------------------------",
"--------------------------------",
"--------------------------------",
"--------------------------------",
"-------------------  -  --------",
"------------------ *  * --------",
"----------------- *=== ---------",
"----------------- *= ** --------",
"----------   ---- *==== --------",
"--------- ===     ***** --------",
"-------- ==  ========= ---------",
"--------   + ========= +--------",
"--------%O&. == == =  ++--------",
"--------@$# * *     = ++--------",
"---------oX  +  ++++  +---------",
"--------------------------------",
"--------------------------------",
"--------------------------------",
"--------------------------------",
"--------------------------------",
"--------------------------------",
"--------------------------------",
"--------------------------------",
"--------------------------------",
"--------------------------------",
"--------------------------------"
};
