/* XPM */
static char *result[] = {
/* columns rows colors chars-per-pixel */
"32 32 10 1 ",
"  c #3E3E3C",
". c #2E7358",
"X c #387D52",
"o c #06884A",
"O c #338E4D",
"+ c #378750",
"@ c #70A25A",
"# c gray76",
"$ c #E6E6E6",
"% c None",
/* pixels */
"%%%%%%%%%%%%%%%%%%%%%%%%%%%%%%%%",
"%%%%%%%%%%%%%%%%%%%%%%%%%%%%%%%%",
"%%%%%%%%%%%%%%%%%%%%%%%%%%%%%%%%",
"%%%%%%%%%%%%%%%%%%%%%%%%%%%%%%%%",
"%%%%%%%%%%%%%%%%%%%%%%%%%%%%%%%%",
"%%%%%%%%%%%%%%%%%%%%%%%%%%%%%%%%",
"%%%%%%%%%%%%%%%%%%%%%%%%%%%%%%%%",
"%%%%%%%%%%%%%%%%%%%%%%%%%%%%%%%%",
"%%%%%%%%%%%%%%%%%%%%%%%%%%%%%%%%",
"%%%%%%%%%%%%%%%%%%%%%%%%%%%%%%%%",
"%%%%%%%%%%%%%%%%%%%%%%%%%%%%%%%%",
"%%%%%%%%  %%%%%%  %%  %%%%%%%%%%",
"%%%%%%%% $ %%%%% #    %%%%%%%%%%",
"%%%%%%%% $ %%%%  # $$ %%%%%%%%%%",
"%%%%%%%% $ %%  $ #  ## %%%%%%%%%",
"%%%%%%%% #$  $$$ #$$$$ %%%%%%%%%",
"%%%%%%%%.  $$$$$ ##### %%%%%%%%%",
"%%%%%%%%+@ $$$$$$$$$  o%%%%%%%%%",
"%%%%%%%%%X $     $#$ oo%%%%%%%%%",
"%%%%%%%%%O #   o $ $ o%%%%%%%%%%",
"%%%%%%%%%%  oo o  o  o%%%%%%%%%%",
"%%%%%%%%%%%%%%%%%%%%%%%%%%%%%%%%",
"%%%%%%%%%%%%%%%%%%%%%%%%%%%%%%%%",
"%%%%%%%%%%%%%%%%%%%%%%%%%%%%%%%%",
"%%%%%%%%%%%%%%%%%%%%%%%%%%%%%%%%",
"%%%%%%%%%%%%%%%%%%%%%%%%%%%%%%%%",
"%%%%%%%%%%%%%%%%%%%%%%%%%%%%%%%%",
"%%%%%%%%%%%%%%%%%%%%%%%%%%%%%%%%",
"%%%%%%%%%%%%%%%%%%%%%%%%%%%%%%%%",
"%%%%%%%%%%%%%%%%%%%%%%%%%%%%%%%%",
"%%%%%%%%%%%%%%%%%%%%%%%%%%%%%%%%",
"%%%%%%%%%%%%%%%%%%%%%%%%%%%%%%%%"
};
