/* XPM */
static char *result[] = {
/* columns rows colors chars-per-pixel */
"32 32 63 1 ",
"  c #06070F",
". c #262D1B",
"X c #470504",
"o c #4F0302",
"O c #660705",
"+ c #6C0806",
"@ c #6D0906",
"# c #6F0806",
"$ c #7A0A07",
"% c #7C0F0C",
"& c #74110E",
"* c #7B120F",
"= c #195938",
"- c #195E38",
"; c #1C6037",
": c #1A603B",
"> c #1A663B",
", c #1A693C",
"< c #1A6B3C",
"1 c #1A6C3C",
"2 c #1A6F3D",
"3 c #1A763D",
"4 c #1A773D",
"5 c #1B763F",
"6 c #1A7A3E",
"7 c #1B7E40",
"8 c #3F6D4B",
"9 c #446C4F",
"0 c #930E0A",
"q c #94120E",
"w c #8B1A16",
"e c #9E1C18",
"r c #8A221E",
"t c #A4221D",
"y c #9C3C36",
"u c #A82A24",
"i c #A92E28",
"p c #AB2F29",
"a c #A43932",
"s c #AB4A41",
"d c #B84C44",
"f c #BB4E46",
"g c #BD665C",
"h c #CB6D62",
"j c #CB6E63",
"k c #CC7267",
"l c #CA736B",
"z c #D57F74",
"x c #1C8944",
"c c #3F825B",
"v c #DB8E82",
"b c #E09C91",
"n c #E5A193",
"m c #E8A89A",
"M c #E9A99A",
"N c #E9ADA0",
"B c #EEBCB1",
"V c #EFC0B6",
"C c #F2CCC3",
"Z c #F3D1C9",
"A c #F4D5CE",
"S c #F5D7D0",
"D c None",
/* pixels */
"DDDDDDDDDDDDDDDDDDDDDDDDDDDDDDDD",
"DDDDDDDDDDDDDDDDDDDDDDDDDDDDDDDD",
"DDDDDDDDDDDDDDDDDDDDDDDDDDDDDDDD",
"DDDDDDDDDDDDDDDDDDDDDDDDDDDDDDDD",
"DDDDDDDDDDDDDDDDDDDDDDDDDDDDDDDD",
"DDDDDDDDDDDDDDDDDDDDDDDDDDDDDDDD",
"DDDDDDDDDDDDDDDDDDDDDDDDDDDDDDDD",
"DDDDDDDDDDDDDDDDDDDDDDDDDDDDDDDD",
"DDDDDDDDDDDDDDDDDDDDDDDDDDDDDDDD",
"DDDDDDDDDDDDDDDD DDDDDDDDDDDDDDD",
"DDDDDDDD  DDDDD   DDDDDDDDDDDDDD",
"DDDDDDDD A      o     DDDDDDDDDD",
"DDDDDDDD VA&&&O+$#O%O  DDDDDDDDD",
"DDDDDDDDD MgsaequiwdX@ .DDDDDDDD",
"DDDDDDDD VBNnvzjftykr0  DDDDDDDD",
"DDDDDDDD Z   SCbplmh*  :DDDDDDDD",
"DDDDDDDD  >-=         >3DDDDDDDD",
"DDDDDDDDx564442<c89,;17xDDDDDDDD",
"DDDDDDDDDDDDDDDDDDDDDDDDDDDDDDDD",
"DDDDDDDDDDDDDDDDDDDDDDDDDDDDDDDD",
"DDDDDDDDDDDDDDDDDDDDDDDDDDDDDDDD",
"DDDDDDDDDDDDDDDDDDDDDDDDDDDDDDDD",
"DDDDDDDDDDDDDDDDDDDDDDDDDDDDDDDD",
"DDDDDDDDDDDDDDDDDDDDDDDDDDDDDDDD",
"DDDDDDDDDDDDDDDDDDDDDDDDDDDDDDDD",
"DDDDDDDDDDDDDDDDDDDDDDDDDDDDDDDD",
"DDDDDDDDDDDDDDDDDDDDDDDDDDDDDDDD",
"DDDDDDDDDDDDDDDDDDDDDDDDDDDDDDDD",
"DDDDDDDDDDDDDDDDDDDDDDDDDDDDDDDD",
"DDDDDDDDDDDDDDDDDDDDDDDDDDDDDDDD",
"DDDDDDDDDDDDDDDDDDDDDDDDDDDDDDDD",
"DDDDDDDDDDDDDDDDDDDDDDDDDDDDDDDD"
};
