/* XPM */
static char *result[] = {
/* columns rows colors chars-per-pixel */
"32 32 6 1 ",
"  c #1A7A3E",
". c #3B5961",
"X c #4C736C",
"o c #1FA04D",
"O c #46BC49",
"+ c #9BDB5E",
/* pixels */
"oooooooooooooooooooooooooooooooo",
"oooooooooooooooooooooooooooooooo",
"oooooooooooooooooooooooooooooooo",
"oooooooooooooooooooooooooooooooo",
"ooo .ooooooooooooooooooooooooooo",
"oooX++oooooooooooooooooooooooooo",
"oooX++oooooooooooooooooooooooooo",
"ooo ..OOoooooooooooooooooooooooo",
"oooooXOO.ooooooooooooooooooooooo",
"ooooo XX ooooooooooooooooooooooo",
"oooooooooooooooooooooooooooooooo",
"oooooooooooooooooooooooooooooooo",
"oooooooooooooooooooooooooooooooo",
"oooooooooooooooooooooooooooooooo",
"oooooooooooooooooooooooooooooooo",
"oooooooooooooooooooooXXoXXXooooo",
"ooooooooooooooooooooX++XXOOXoooo",
"ooooooooooooooooooooX++O.OO.oooo",
"ooooooooooooooooooooXX.OOOoooooo",
"ooooooooooooooooooo.OOOOoooooooo",
"ooooooooooooooooooo.OOOOoooooooo",
"oooooooooooooooooooo.X.ooooooooo",
"oooooooooooooooooooooooooooooooo",
"oooooooooooooooooooooooooooooooo",
"oooooooooooooooooooooooooooooooo",
"oooooooooooooooooooooooooooooooo",
"oooooooooooooooooooooooooooooooo",
"oooooooooooooooooooooooooooooooo",
"oooooooooooooooooooooooooooooooo",
"oooooooooooooooooooooooooooooooo",
"oooooooooooooooooooooooooooooooo",
"oooooooooooooooooooooooooooooooo"
};
