/* XPM */
static char *result[] = {
/* columns rows colors chars-per-pixel */
"32 32 17 1 ",
"  c #2E0906",
". c #32080D",
"X c #1E2733",
"o c #4F0D14",
"O c #4B1411",
"+ c #4F1612",
"@ c #691D18",
"# c #7D3224",
"$ c #0E4523",
"% c #24523B",
"& c #1A7A3E",
"* c #7C4029",
"= c #2D404C",
"- c #A85738",
"; c #1FA04D",
": c #46BC49",
"> c #9BDB5E",
/* pixels */
"::::::::::::::::::::::::::::::::",
"::::::::::::::::::::::::::::::::",
"::::::::::::::::::::::::::::::::",
"::::::::::::::::::::::::::::::::",
"::::::::::::::::::::::::::::::::",
"::::::::::::::::::::::::::::::::",
"::::::::::::::::::::::::::::::::",
"::::::::::::::::::::::::::::::::",
"::::::::::::::::::::::::::::::::",
"::::::::::::::::::::::&::X$XX==X",
":::::::::::::::::::::::::&XOOO -",
"::::::::::::::::::::::::&&=OOOo#",
":::::::::::::::::::::::::;XOOOo#",
":::::::::::::::::::::::::XOOO###",
":::::::::::::::::::::::%>>=...oo",
"::::::::::::::::::::::::>>=..   ",
"::::::::::::::::::::::::&&=..#--",
":::::::::::::::::::::::>>&=...oo",
":::::::::::::::::::::::>>&=...oo",
"::::::::::::::::::::::::&&=...o-",
"::::::::::::::::::::::&&>>=+++@-",
":::::::::::::::::::::::::>X**@@-",
":::::::::::::::::::::::>>X$***@#",
":::::::::::::::::::::::>>=$OOOoo",
"::::::::::::::::::::::&::=$OOOo ",
"::::::::::::::::::::::&::X$OOOo#",
":::::::::::::::::::::::::&XOOO$#",
"::::::::::::::::::::::::&&=$$:$$",
":::::::::::::::::::::::::;X$$$$$",
":::::::::::::::::::::::::X$$$$$$",
":::::::::::::::::::::::%>>=$$$$$",
"::::::::::::::::::::::::>>X$$$$$"
};
