/* XPM */
static char *result[] = {
/* columns rows colors chars-per-pixel */
"32 32 9 1 ",
"  c #1E2733",
". c #0E4523",
"X c #24523B",
"o c #1A7A3E",
"O c #2D404C",
"+ c #1FA04D",
"@ c #46BC49",
"# c #9BDB5E",
"$ c None",
/* pixels */
"@@@@@@@@@@@@@@@@@@@@@@o@@ ..$$$$",
"@@@@@@@@@@@@@@@@@@@@@@@@@o ..$$$",
"@@@@@@@@@@@@@@@@@@@@@@@@ooO..$$$",
"@@@@@@@@@@@@@@@@@@@@@@@@@+ ..$$$",
"@@@@@@@@@@@@@@@@@@@@@@@@@ ..$$$$",
"@@@@@@@@@@@@@@@@@@@@@@@X##O..$$$",
"@@@@@@@@@@@@@@@@@@@@@@@@##O..$$$",
"@@@@@@@@@@@@@@@@@@@@@@@@ooO..$$$",
"@@@@@@@@@@@@@@@@@@@@@@@##oO..$$$",
"@@@@@@@@@@@@@@@@@@@@@@@##oO..$$$",
"@@@@@@@@@@@@@@@@@@@@@@@@ooO..$$$",
"@@@@@@@@@@@@@@@@@@@@@@oo##O..$$$",
"@@@@@@@@@@@@@@@@@@@@@@@@@# ..$$$",
"@@@@@@@@@@@@@@@@@@@@@@@## ..$$$$",
"@@@@@@@@@@@@@@@@@@@@@@@##O..$$$$",
"@@@@@@@@@@@@@@@@@@@@@@o@@O..$$$$",
"@@@@@@@@@@@@@@@@@@@@@@o@@ ..$$$$",
"@@@@@@@@@@@@@@@@@@@@@@@@@o ..$$$",
"@@@@@@@@@@@@@@@@@@@@@@@@ooO..$$$",
"@@@@@@@@@@@@@@@@@@@@@@@@@+ ..$$$",
"@@@@@@@@@@@@@@@@@@@@@@@@@ ..$$$$",
"@@@@@@@@@@@@@@@@@@@@@@@X##O..$$$",
"@@@@@@@@@@@@@@@@@@@@@@@@## ..$$$",
"@@@@@@@@@@@@@@@@@@@@@@@@X ..$$$$",
"@@@@@@@@@@@@@@@@@@@@@@@##O..$$$$",
"@@@@@@@@@@@@@@@@@@@@@@@## ..$$$$",
"@@@@@@@@@@@@@@@@@@@@@@@@o ..$$$$",
"@@@@@@@@@@@@@@@@@@@@@@oo##O..$$$",
"@@@@@@@@@@@@@@@@@@@@@@@@@# ..$$$",
"@@@@@@@@@@@@@@@@@@@@@@@## ..$$$$",
"@@@@@@@@@@@@@@@@@@@@@@@##O..$$$$",
"@@@@@@@@@@@@@@@@@@@@@@o@@O..$$$$"
};
