/* XPM */
static char *result[] = {
/* columns rows colors chars-per-pixel */
"32 32 7 1 ",
"  c #1E2733",
". c #24523B",
"X c #1A7A3E",
"o c #2D404C",
"O c #1FA04D",
"+ c #46BC49",
"@ c #9BDB5E",
/* pixels */
"++++++++++++++++++++++++++++++++",
"++++++++++++++++++++++++++++++++",
"++++++++++++++++++++++++++++++++",
"++++++++++++++++++++++++++++++++",
"++++++++++++++++++++++++++++++++",
"++++++++++++++++++++++++++++++++",
"++++++++++++++++++++++++++++++++",
"++++++++++++++++++++++++++++++++",
"++++++++++++++++++++++++++++++++",
" ++X++++++++++++++++++++++++++++",
"X+++++++++++++++++++++++++++++++",
"XX++++++++++++++++++++++++++++++",
"O+++++++++++++++++++++++++++++++",
" +++++++++++++++++++++++++++++++",
"@@.+++++++++++++++++++++++++++++",
"@@++++++++++++++++++++++++++++++",
"XX++++++++++++++++++++++++++++++",
"X@@+++++++++++++++++++++++++++++",
"X@@+++++++++++++++++++++++++++++",
"XX++++++++++++++++++++++++++++++",
"@@XX++++++++++++++++++++++++++++",
"@+++++++++++++++++++++++++++++++",
" @@+++++++++++++++++++++++++++++",
"o@@+++++++++++++++++++++++++++++",
"o++X++++++++++++++++++++++++++++",
" ++X++++++++++++++++++++++++++++",
"X+++++++++++++++++++++++++++++++",
"XX++++++++++++++++++++++++++++++",
"O+++++++++++++++++++++++++++++++",
" +++++++++++++++++++++++++++++++",
"@@.+++++++++++++++++++++++++++++",
"@@++++++++++++++++++++++++++++++"
};
