/* XPM */
static char *result[] = {
/* columns rows colors chars-per-pixel */
"32 32 7 1 ",
"  c #1E2733",
". c #24523B",
"X c #1A7A3E",
"o c #2D404C",
"O c #46BC49",
"+ c #9BDB5E",
"@ c None",
/* pixels */
"@ .OOOOOOOOOOOOOOOOOOOOOOOOOOOOO",
"o++XOOOOOOOOOOOOOOOOOOOOOOOOOOOO",
" +OOOOOOOOOOOOOOOOOOOOOOOOOOOOOO",
"@ ++OOOOOOOOOOOOOOOOOOOOOOOOOOOO",
"@o++XOOOOOOOOOOOOOOOOOOOOOOOOOOO",
"@oOOOOOOOOOOOOOOOOOOOOOOOOOOOOOO",
"oOOOOOOOOOOOOOOOOOOOOOOOOOOOOOOO",
"oOOOOOOOOOOOOOOOOOOOOOOOOOOOOOOO",
"@oOOXOOOOOOOOOOOOOOOOOOOOOOOOOOO",
"@oOOXOOOOOOOOOOOOOOOOOOOOOOOOOOO",
"oOOOOOOOOOOOOOOOOOOOOOOOOOOOOOOO",
"oOOOOOOOOOOOOOOOOOOOOOOOOOOOOOOO",
"@oOOOOOOOOOOOOOOOOOOOOOOOOOOOOOO",
"@o++XOOOOOOOOOOOOOOOOOOOOOOOOOOO",
"@ ++OOOOOOOOOOOOOOOOOOOOOOOOOOOO",
" +OOOOOOOOOOOOOOOOOOOOOOOOOOOOOO",
"o++XOOOOOOOOOOOOOOOOOOOOOOOOOOOO",
"@o++OOOOOOOOOOOOOOOOOOOOOOOOOOOO",
"@oOOOOOOOOOOOOOOOOOOOOOOOOOOOOOO",
"@ ++OOOOOOOOOOOOOOOOOOOOOOOOOOOO",
"@o++XOOOOOOOOOOOOOOOOOOOOOOOOOOO",
"@oOOOOOOOOOOOOOOOOOOOOOOOOOOOOOO",
"oOOOOOOOOOOOOOOOOOOOOOOOOOOOOOOO",
"oOOOOOOOOOOOOOOOOOOOOOOOOOOOOOOO",
"@oOXOOOOOOOOOOOOOOOOOOOOOOOOOOOO",
"@oOXOOOOOOOOOOOOOOOOOOOOOOOOOOOO",
"oOOOOOOOOOOOOOOOOOOOOOOOOOOOOOOO",
"oOOOOOOOOOOOOOOOOOOOOOOOOOOOOOOO",
"@ OOOOOOOOOOOOOOOOOOOOOOOOOOOOOO",
"@o++XOOOOOOOOOOOOOOOOOOOOOOOOOOO",
"  ++OOOOOOOOOOOOOOOOOOOOOOOOOOOO",
"ooOOOOOOOOOOOOOOOOOOOOOOOOOOOOOO"
};
