/* XPM */
static char *result[] = {
/* columns rows colors chars-per-pixel */
"32 32 15 1 ",
"  c #2E0906",
". c #1E2733",
"X c #4F0D14",
"o c #691D18",
"O c #7D3224",
"+ c #0E4523",
"@ c #24523B",
"# c #1A7A3E",
"$ c #2D404C",
"% c #A85738",
"& c #1A8A42",
"* c #1FA04D",
"= c #46BC49",
"- c #84BB4E",
"; c #9BDB5E",
/* pixels */
"================================",
"================================",
"================================",
"================================",
"================================",
"================================",
"==##==========#===##===#========",
";;======@==;;=#=;;==;;=#=;;==@==",
";;===#==;;@;;#;=;;==;;=;#;;@;;==",
".$$.##*.;;.$..;;.$$$$.;;..$.;;.*",
"oo %.$.X$.o%% $.ooo %%.$oXOO.$X.",
"ooXOOOOXXooOO oooooXooOX XOOooXo",
"ooXOOOOXXooOOXoooooXooOX%XOOooXO",
"oOOOOoOo  Xo%%%%oo% OOOX%XOOoo O",
"XXXXOoO %%% %%OOXXO OOO %XOOooXO",
"X   XXoXooo OOOOXXO OOO OXXoooXO",
"XO%%  oXOOoXOOOOXXOOOOOOOXXoOOXo",
"XXXXXXXXooo%%%%oXXXXXXXXXo%%%%XX",
"XXXX%%%Xooo%%%%%XXXXXXXXX%%%%%X%",
"XXX%%%%Xooo%%%%%XXXXXXooo%%%%%X%",
"ooo%%%%XooooooooooooooooooooooX%",
"%oo%%%OXoooooo%%%oooo%%%oX oooXO",
"%%oOOOOoOo  Xo%%%%oo%%%% %%% OoO",
"OOXXXXOoO %%% %%OOXXOO%% oooOOoO",
"OOX   XXoXooo OOOOXXOOOOXoOOOOXX",
"OOXO%%  oXOOoXOOOOXXOOOOXoO==o  ",
"OOXOOO ++XOOoX&&&&XXOOO&&&&&&++ ",
"+==++&&++++&&&+--====;;+&&&++++*",
"++++++++++++++++++++++++++++++++",
"++++++++++++++++++++++++++++++++",
"++++++++++++++++++++++++++++++++",
"++++++++++++++++++++++++++++++++"
};
