/* XPM */
static char *result[] = {
/* columns rows colors chars-per-pixel */
"32 32 84 1 ",
"  c #1E2733",
". c #202A36",
"X c #202B36",
"o c #212B37",
"O c #202C37",
"+ c #212C37",
"@ c #212C38",
"# c #222D38",
"$ c #222D39",
"% c #222E39",
"& c #222E3A",
"* c #232F3A",
"= c #232F3B",
"- c #23303B",
"; c #24313D",
": c #24323D",
"> c #25323D",
", c #24333E",
"< c #25333E",
"1 c #25343F",
"2 c #263540",
"3 c #273641",
"4 c #273741",
"5 c #273742",
"6 c #283742",
"7 c #283844",
"8 c #293944",
"9 c #293945",
"0 c #293A45",
"q c #2A3B46",
"w c #2A3C46",
"e c #2B3D48",
"r c #2B3E48",
"t c #2C3E49",
"y c #2C3F49",
"u c #2C3F4A",
"i c #2C3F4B",
"p c #2C404A",
"a c #2D404A",
"s c #2D414B",
"d c #2D424C",
"f c #2E424C",
"g c #2E444E",
"h c #2F444E",
"j c #2F454F",
"k c #30454F",
"l c #304650",
"z c #304750",
"x c #314750",
"c c #304651",
"v c #314752",
"b c #314851",
"n c #314852",
"m c #324A53",
"M c #334A53",
"N c #324B53",
"B c #334B55",
"V c #334C55",
"C c #344D56",
"Z c #354F58",
"A c #365058",
"S c #365059",
"D c #365159",
"F c #36515A",
"G c #37525A",
"H c #37525B",
"J c #37535C",
"K c #38535B",
"L c #38545C",
"P c #38545D",
"I c #39555D",
"U c #39565E",
"Y c #3A575F",
"T c #3A5860",
"R c #3B5860",
"E c #3B5861",
"W c #3B5961",
"Q c #3B5A61",
"! c #3C5B61",
"~ c #3C5B62",
"^ c #3F5E63",
"/ c #3F6064",
"( c #446666",
") c None",
/* pixels */
"))))))))))))))))))))cvdymUWWW!/(",
")))))))))))))))))))))i5>yCIRWWQ^",
"))))))))))))))))))))))))<wNYWWW~",
"))))))))))))))))))))))))=3xUWWWW",
"))))))))))))))))))))))))9uVYWWWW",
"))))))))))))))))))))))))7tBYWWWW",
"))))))))))))))))))))))))@1lUWWWW",
")))))))))))))))))))))))))&eMJEWW",
"))))))))))))))))))))))))))-6mTWW",
"))))))))))))))))))))))))))3yCTWW",
"))))))))))))))))))))))))):fSUWWW",
"))))))))))))))))))))))))3pCYWWWW",
")))))))))))))))))))))))%yZUWWWWW",
")))))))))))))))))))))))%sLWWWWWW",
")))))))))))))))))))))))%yAUWWWWW",
"))))))))))))))))))))))))4sCYWWWW",
"))))))))))))))))))))))))X,jUWWWW",
")))))))))))))))))))))))) =gUWWWW",
"))))))))))))))))))))))))*3bUWWWW",
")))))))))))))))))))))))$qbGTWWWW",
"))))))))))))))))))))))*2kIWWWWWW",
")))))))))))))))))))))O0nGYWWWWWW",
")))))))))))))))))))))+rKWWWWWWWW",
")))))))))))))))))))))+rKWWWWWWWW",
")))))))))))))))))))))+rKWWWWWWWW",
")))))))))))))))))))))+rFTWWWWWWW",
")))))))))))))))))))))o8zDYWWWWWW",
"))))))))))))))))))))))&2kIWWWWWW",
")))))))))))))))))))))))%sLWWWWWW",
")))))))))))))))))))))))%aHTWWWWW",
")))))))))))))))))))))))#8hZTWWWW",
")))))))))))))))))))))))).;hPRWWW"
};
