/* XPM */
static char *result[] = {
/* columns rows colors chars-per-pixel */
"32 32 111 2 ",
"   c #202B37",
".  c #212C37",
"X  c #212C38",
"o  c #24303C",
"O  c #25333E",
"+  c #25373E",
"@  c #253A3D",
"#  c #263540",
"$  c #263541",
"%  c #283F41",
"&  c #283944",
"*  c #2A3B45",
"=  c #2B3D48",
"-  c #2B3E48",
";  c #2C3E4A",
":  c #2A4045",
">  c #2C404A",
",  c #2D404C",
"<  c #2D414C",
"1  c #2D414D",
"2  c #2E424C",
"3  c #2E424E",
"4  c #2F434E",
"5  c #2F444E",
"6  c #2F464F",
"7  c #2F474F",
"8  c #2D484A",
"9  c #30454F",
"0  c #31564C",
"q  c #304650",
"w  c #314650",
"e  c #314751",
"r  c #324851",
"t  c #314852",
"y  c #334A52",
"u  c #324A53",
"i  c #334A53",
"p  c #334B53",
"a  c #314D50",
"s  c #324A54",
"d  c #324B54",
"f  c #324A55",
"g  c #334A55",
"h  c #334C56",
"j  c #344C56",
"k  c #354D57",
"l  c #375157",
"z  c #355756",
"x  c #365059",
"c  c #37525B",
"v  c #37535B",
"b  c #38535B",
"n  c #39545B",
"m  c #3A565A",
"M  c #3B575B",
"N  c #38525C",
"B  c #38545C",
"V  c #38555D",
"C  c #39555D",
"Z  c #39555E",
"A  c #39565E",
"S  c #3A575E",
"D  c #3A575F",
"F  c #386657",
"G  c #39625A",
"H  c #3C705C",
"J  c #3A5860",
"K  c #3B5860",
"L  c #3B5961",
"P  c #3B5A61",
"I  c #3C5A61",
"U  c #3C5B62",
"Y  c #3D5C62",
"T  c #3E5D62",
"R  c #3F5D63",
"E  c #3F5F63",
"W  c #3F5E64",
"Q  c #3E7260",
"!  c #406060",
"~  c #406160",
"^  c #406061",
"/  c #436463",
"(  c #406064",
")  c #406164",
"_  c #406165",
"`  c #426366",
"'  c #436565",
"]  c #436667",
"[  c #446565",
"{  c #446767",
"}  c #456867",
"|  c #456967",
" . c #456868",
".. c #466968",
"X. c #476B69",
"o. c #476C69",
"O. c #486D68",
"+. c #496E6A",
"@. c #496F6A",
"#. c #4A6F6B",
"$. c #407A62",
"%. c #4A706A",
"&. c #4A706B",
"*. c #4B716B",
"=. c #4B726B",
"-. c #4B726C",
";. c #4C736C",
":. c #478A6B",
">. c #488F6C",
",. c #4C9971",
"<. c None",
/* pixels */
"<.<.<.<.<.<.<.<.<.<.<.<.<.<.<.<.<.<.<.<.<.<.<.<.<.<.<.<.<.<.<.<.",
"<.<.<.<.<.<.<.<.<.<.<.<.<.<.<.<.<.<.<.<.<.<.<.<.<.<.<.<.<.<.<.<.",
"<.<.<.<.<.<.<.<.<.<.<.<.<.<.<.<.<.<.<.<.<.<.<.<.<.<.<.<.<.<.<.<.",
"<.<.<.<.<.<.<.<.<.<.<.<.<.<.<.<.<.<.<.<.<.<.<.<.<.<.<.<.<.<.<.<.",
"<.<.<.<.<.<.<.<.<.<.<.<.<.<.<.<.<.<.<.<.<.<.<.<.<.<.<.<., 1 5 6 ",
"<.<.<.<.<.<.<.<.<.<.<.<.<.<.<.<.<.<.<.<.<.<.<.<.<.<.<.<., 7 z G ",
"<.<.<.<.<.<.<.<.<.<.<.<.<.<.<.<.<.<.<.<.<.<.<.<.<.<.<.<.; a Q :.",
"<.<.<.<.<.<.<.<.<.<.<.<.<.<.<.<.<.<.<.<.<.<.<.<.<.<.<.<.$ 8 $.,.",
"<.<.<.<.<.<.<.<.<.<.<.<.<.<.<.<.<.<.<.<.<.<.<.<.<.<.<.<.  % H >.",
"<.<.<.<.<.<.<.<.<.<.<.<.<.<.<.<.<.<.<.<.<.<.<.<.<.<.<.<.<.@ 0 F ",
"<.<.<.<.<.<.<.<.<.<.<.<.<.<.<.<.<.<.<.<.<.<.<.<.<.<.<.<.<.<.+ : ",
"<.<.<.<.<.<.<.<.<.<.<.<.<.<.<.<.<.<.<.<.<.<.<.<.<.<.<.<.<.< 2 e ",
"<.<.<.<.<.<.<.<.<.<.<.<.<.<.<.<.<.<.<.<.<.<.<.<.<.<.<.<.w i n I ",
"<.<.<.<.<.<.<.<.<.<.<.<.<.<.<.<.<.<.<.<.<.<.<.<.<.<.<.r m ~ [ ..",
"<.<.<.<.<.<.<.<.<.<.<.<.<.<.<.<.<.<.<.<.<.<.<.<.<.<., y ! =.;.;.",
"<.<.<.<.<.<.<.<.<.<.<.<.<.<.<.<.<.<.<.<.<.<.<.<.<.<.< y ~ =.;.;.",
"<.<.<.<.<.<.<.<.<.<.<.<.<.<.<.<.<.<.<.<.<.<.<.<.<.<.r l / =.;.-.",
"<.<.<.<.<.<.<.<.<.<.<.<.<.<.<.<.<.<.<.<.<.<.<.. $ 9 M / O.;.;.@.",
"<.<.<.<.<.<.<.<.<.<.<.<.<.<.<.<.<.<.<.<.<.<.o # = p ^ %.;.-.@.| ",
"<.<.<.<.<.<.<.<.<.<.<.<.<.<.<.<.<.<.<.<.<.. * u x S ' &.;.&.] W ",
"<.<.<.<.<.<.<.<.<.<.<.<.<.<.<.<.<.<.<.<.<.. - b L Y ` X.&.#.{ _ ",
"<.<.<.<.<.<.<.<.<.<.<.<.<.<.<.<.<.<.<.<.<.. - c L P Y ) X.*.%.+.",
"<.<.<.<.<.<.<.<.<.<.<.<.<.<.<.<.<.<.<.<.<.  & q x D L Y ` X.&.;.",
"<.<.<.<.<.<.<.<.<.<.<.<.<.<.<.<.<.<.<.<.<.<.X O 5 V L P U ( o.;.",
"<.<.<.<.<.<.<.<.<.<.<.<.<.<.<.<.<.<.<.<.<.<.= > d A L L L R X.;.",
"<.<.<.<.<.<.<.<.<.<.<.<.<.<.<.<.<.<.<.<.<.3 g B D L L L L R X.;.",
"<.<.<.<.<.<.<.<.<.<.<.<.<.<.<.<.<.<.<.<.<.3 h A L L L U ) { @.;.",
"<.<.<.<.<.<.<.<.<.<.<.<.<.<.<.<.<.<.<.<.<.4 j A L L L T  .*.;.;.",
"<.<.<.<.<.<.<.<.<.<.<.<.<.<.<.<.<.<., 1 t k N J L L L U ) } +.;.",
"<.<.<.<.<.<.<.<.<.<.<.<.<.<.<.<.<.<., 1 s C J L L L L L I E X.;.",
"<.<.<.<.<.<.<.<.<.<.<.<.<.<.<.<.<.<., 1 f Z L L L L L L L R X.;.",
"<.<.<.<.<.<.<.<.<.<.<.<.<.<.<.<.<.<., 1 s c B v C K L L L T  .&."
};
