/* XPM */
static char *result[] = {
/* columns rows colors chars-per-pixel */
"32 32 156 2 ",
"   c #360C08",
".  c #3A0D0A",
"X  c #3B140E",
"o  c #36180F",
"O  c #2C1616",
"+  c #2B1E16",
"@  c #2D1D1D",
"#  c #321314",
"$  c #331C10",
"%  c #381F1C",
"&  c #2C2513",
"*  c #262F17",
"=  c #2D2B17",
"-  c #232D1E",
";  c #3B2315",
":  c #302D17",
">  c #3D2C1C",
",  c #25351A",
"<  c #2B341B",
"1  c #263C1E",
"2  c #2C3A1D",
"3  c #34321D",
"4  c #343B1B",
"5  c #1F2E2F",
"6  c #1F2A30",
"7  c #1D3433",
"8  c #1D3C35",
"9  c #23232B",
"0  c #2D252C",
"q  c #202A2D",
"w  c #3E2123",
"e  c #223524",
"r  c #203D25",
"t  c #3B3421",
"y  c #353E24",
"u  c #2E2C33",
"i  c #3A2B31",
"p  c #213437",
"a  c #26343F",
"s  c #29333D",
"d  c #233F3E",
"f  c #3A3438",
"g  c #363F3B",
"h  c #42110D",
"j  c #4E0D13",
"k  c #461513",
"l  c #4A1213",
"z  c #441D13",
"x  c #4D1A12",
"c  c #411A1B",
"v  c #4B1A19",
"b  c #551514",
"n  c #591516",
"m  c #551A14",
"M  c #5C1A14",
"N  c #5B1718",
"B  c #551D1D",
"V  c #5D1A19",
"C  c #631B17",
"Z  c #651C18",
"A  c #691D18",
"S  c #462314",
"D  c #4C2016",
"F  c #47221A",
"G  c #48271C",
"H  c #482D1C",
"J  c #522619",
"K  c #5C2219",
"L  c #5A291F",
"P  c #4A371F",
"I  c #64211B",
"U  c #6D231C",
"Y  c #61281A",
"T  c #6C2B1E",
"R  c #71271E",
"E  c #74291E",
"W  c #411E21",
"Q  c #4C2224",
"!  c #4B2A2A",
"~  c #403520",
"^  c #403A39",
"/  c #742C21",
"(  c #792E22",
")  c #6C3422",
"_  c #713321",
"`  c #7D3224",
"'  c #7C3A26",
"]  c #26411F",
"[  c #304119",
"{  c #1F4527",
"}  c #1E5427",
"|  c #1F5428",
" . c #1C5A2B",
".. c #1B4C36",
"X. c #1B5735",
"o. c #195B34",
"O. c #1C5538",
"+. c #254422",
"@. c #2C4324",
"#. c #214B24",
"$. c #2F4827",
"%. c #2F4B28",
"&. c #324326",
"*. c #215528",
"=. c #225C2D",
"-. c #23413E",
";. c #23503D",
":. c #1B632E",
">. c #196534",
",. c #176C36",
"<. c #1A6B32",
"1. c #167737",
"2. c #197135",
"3. c #316124",
"4. c #216330",
"5. c #273742",
"6. c #283742",
"7. c #2C3E45",
"8. c #323C45",
"9. c #2B4246",
"0. c #2F4348",
"q. c #2F494F",
"w. c #324A4D",
"e. c #36534E",
"r. c #344D56",
"t. c #3B5050",
"y. c #36515A",
"u. c #39555D",
"i. c #3E5C5D",
"p. c #3B5961",
"a. c #3F6064",
"s. c #42625F",
"d. c #436565",
"f. c #476C66",
"g. c #486C67",
"h. c #466A68",
"j. c #496E6A",
"k. c #4C736C",
"l. c #803425",
"z. c #863927",
"x. c #893D2A",
"c. c #8D402B",
"v. c #8F482E",
"b. c #974B31",
"n. c #9C4C32",
"m. c #9F5134",
"M. c #A25235",
"N. c #A85738",
"B. c #32812F",
"V. c #328C32",
"C. c #329134",
"Z. c #6A8737",
"A. c #6A9439",
"S. c #70A53F",
"D. c #72B042",
"F. c None",
/* pixels */
"p.p.p.u.p.p.p.p.p.p.p.a.d.h.d.d.d.h.h.j.k.k.k.k.k.k.k.k.k.k.k.h.",
"p.p.p.p.p.p.p.p.p.p.p.d.j.k.k.a.p.p.a.j.k.k.k.k.k.k.k.k.k.k.k.j.",
"p.p.p.p.p.p.p.p.p.p.p.a.d.d.d.a.p.d.h.k.k.k.k.k.k.k.k.k.k.f.i.w.",
"p.p.p.p.p.p.p.p.p.p.p.p.p.p.p.p.a.h.k.k.k.k.k.f.j.f.f.f.f.s.w.7 ",
"y.p.p.p.p.p.p.p.p.p.p.p.p.d.h.f.j.j.k.k.k.k.a.w.0.0.0.0.0.9.;.o.",
"q.y.p.p.p.p.p.y.y.y.y.y.y.i.d.s.d.h.d.d.f.d.t.u 9 9 6 7 7 8 o.2.",
"5.9.y.p.p.p.p.q.6.6.5.5.5.7.7.7.8.7.7.7.8.0.f Q c O e X.o.>.,.1.",
"..9.q.r.r.r.r.8.u 9 9 5 8 8 7 5 9 0 0 u 0 0 Q m v & #.,.1.1.1.1.",
">.X.d 5.a a s i Q c O r :.>.X.- # v B B K B v h : | <.2.1.1.1.1.",
"1.>...8 8 5 9 c C b X 2  .<.<.* . m Z A Z A b   , <.1.1.1.1.1.1.",
"1.1.,.>.>.{ + h C C M z & } <.* . m A A A A b   , <.1.1.1.1.1.1.",
"1.1.1.1.1. ., ; m M U M S 2 { > v I R U A C v : #.2.1.1.1.1.1.1.",
"1.1.1.1.1.,. .{ o m / / T S o K E ( ` ( U n t =.2.1.1.1.1.1.1.1.",
"1.1.1.1.1.1.1. .1 H T ` x._ L / ` ` ` ` R n t >.1.1.1.1.1.1.1.1.",
"1.1.1.1.1.1.1.1.:.&.M ` M.M.b.x.` ` ` ` T n 3 <.1.1.1.1.1.1.1.1.",
"1.1.1.1.1.1.1.1.2.@.k ` N.N.M.z.E E R U L ! ^ 2.e.e.e.1.1.1.1.1.",
"1.1.1.1.1.1.1.1.2.+.o _ M.N.n.l.A A Z n Q Z.D.w.e.C.C.e.1.1.1.1.",
"1.1.1.1.1.1.1.1.1. .@.~ / v.M.l.A A M j w A.D.V.0.C.C.9.1.1.1.1.",
"1.1.1.1.1.1.1.1.1.<.=.3 l ' n.l.A A M h ; g d V.C.C.1.1.1.1.1.1.",
"1.1.1.1.1.1.1.1.1.=.y ~ K ` x.` E U C b S 4 3.V.1.1.1.1.1.1.1.1.",
"1.1.1.1.1.1.1.1.2.&.v I ( ` l.` E R A C b . [ B.1.1.1.1.1.1.1.1.",
"1.1.1.1.1.1.1.1.2.&.x U ` ` ` ` E U A A M   @ <.1.1.1.1.1.1.1.1.",
"1.1.1.1.1.1.1.1.,.&.l I ` ` ` ` ( R A A M h = <.1.1.1.1.1.1.1.1.",
"1.1.1.1.1.1.1.1.2.+.X C ` ` ` l.( R A A M h 3 :.1.1.1.1.1.1.1.1.",
"1.1.1.1.1.1.1.1.2.#.= J / / / / / Z Z Z B F +.,.1.1.1.1.1.1.1.1.",
"1.1.1.1.1.1.1.1.1.>.*.~ N N V V n n b n G %.>.1.1.1.1.1.1.1.1.1.",
"1.1.1.1.1.1.1.1.1.1.2.&.j j j j j j j j ~ =.1.1.1.1.1.1.1.1.1.1.",
"1.1.1.1.1.1.1.1.1.1.1.1.1.1.1.1.2.2.1.1.1.1.1.B.1.1.1.1.1.1.1.1.",
"1.1.1.1.1.1.1.1.1.1.1.1.1.1.1.1.1.1.1.1.1.1.1.1.1.1.1.1.1.1.1.1.",
"1.1.1.1.1.1.1.1.1.1.1.1.1.1.1.1.1.1.1.1.1.1.1.1.1.1.1.1.1.1.1.1.",
"1.1.1.1.1.F.F.1.1.1.1.1.1.1.1.1.1.1.1.1.1.1.1.1.1.1.1.1.1.1.1.1.",
"1.1.1.B.F.F.F.F.1.1.1.1.1.1.F.F.F.1.1.1.1.1.1.F.F.1.1.1.1.1.1.F."
};
