/* XPM */
static char *result[] = {
/* columns rows colors chars-per-pixel */
"32 32 160 2 ",
"   c #496E6A",
".  c #476C69",
"X  c #3F5F64",
"o  c #3B5961",
"O  c #3D5D63",
"+  c #406064",
"@  c #3F5E63",
"#  c #3C5A61",
"$  c #3B5A61",
"%  c #416264",
"&  c #466A68",
"*  c #496F6A",
"=  c #4A6F6B",
"-  c #416265",
";  c #486D6A",
":  c #4C736C",
">  c #4C7C6D",
",  c #4C886F",
"<  c #4C8B6F",
"1  c #4C8A6F",
"2  c #4C806E",
"3  c #4C776D",
"4  c #4C7F6E",
"5  c #4C896F",
"6  c #4A846E",
"7  c #456868",
"8  c #456867",
"9  c #3C5A62",
"0  c #436666",
"q  c #4B726C",
"w  c #4B706B",
"e  c #426365",
"r  c #4C9370",
"t  c #4C9771",
"y  c #4C9671",
"u  c #4C9571",
"i  c #498D6E",
"p  c #3D5B62",
"a  c #3C5B62",
"s  c #446767",
"d  c #476B69",
"f  c #486D69",
"g  c #4B716B",
"h  c #4C9471",
"j  c #4C9971",
"k  c #4C8F6F",
"l  c #4C9871",
"z  c #498E6E",
"x  c #3D5D62",
"c  c #406165",
"v  c #4C726C",
"b  c #4C756C",
"n  c #4C7A6D",
"m  c #4C7D6D",
"M  c #4C876E",
"N  c #4C9470",
"B  c #4C8F70",
"V  c #4A876E",
"C  c #416365",
"Z  c #486C69",
"A  c #4A706B",
"S  c #4C8C6F",
"D  c #4C7F6D",
"F  c #4B7A6D",
"G  c #3F5F63",
"H  c #3E5E63",
"J  c #406265",
"K  c #4C7B6D",
"L  c #4C846E",
"P  c #4C9270",
"I  c #4C8D70",
"U  c #4C796D",
"Y  c #4C746C",
"T  c #3F6064",
"R  c #436667",
"E  c #3D5C63",
"W  c #3F6063",
"Q  c #466968",
"!  c #4C8E6F",
"~  c #4C876F",
"^  c #4C9070",
"/  c #4C826E",
"(  c #4C766D",
")  c #426465",
"_  c #486E69",
"`  c #466F69",
"'  c #467C6B",
"]  c #48896D",
"[  c #4B9470",
"{  c #4C9570",
"}  c #4C766C",
"|  c #4C856E",
" . c #4A706A",
".. c #4B726B",
"X. c #4B716C",
"o. c #486E6A",
"O. c #3D5C62",
"+. c #4A716B",
"@. c #436566",
"#. c #3E5F63",
"$. c #3E6263",
"%. c #427167",
"&. c #498C6E",
"*. c #4C816E",
"=. c #426566",
"-. c #426466",
";. c #3F6565",
":. c #487F6C",
">. c #4C836E",
",. c #4C776C",
"<. c #49786C",
"1. c #467F6B",
"2. c #46806B",
"3. c #467569",
"4. c #466B68",
"5. c #49706B",
"6. c #48726B",
"7. c #466D69",
"8. c #406665",
"9. c #3E6464",
"0. c #3D6363",
"q. c #3D6063",
"w. c #406164",
"e. c #3E5D63",
"r. c #446667",
"t. c #416164",
"y. c #456968",
"u. c #4A6F6A",
"i. c #3C5B61",
"p. c #4C786D",
"a. c #4B746C",
"s. c #4C7E6D",
"d. c #476A69",
"f. c #4A726B",
"g. c #4C866F",
"h. c #457168",
"j. c #4B876E",
"k. c #4C9170",
"l. c #4C8D6F",
"z. c #417067",
"x. c #4A916F",
"c. c #476B68",
"v. c #416F67",
"b. c #4C8E70",
"n. c #406B65",
"m. c #46836B",
"M. c #49806C",
"N. c #446867",
"B. c #3D5F62",
"V. c #3F6865",
"C. c #446D68",
"Z. c #4C7C6E",
"A. c #4C7D6E",
"S. c #476A68",
"D. c #466B69",
"F. c #405F64",
"G. c #496F6B",
"H. c #446666",
"J. c #456967",
"K. c #4A716A",
/* pixels */
"  . X o o O + @ # o $ % & * = - o o X ; : : > , < 1 2 3 4 5 < 6 ",
"7 8 @ o o o # # o o 9 0 q : w 0 @ @ e   : : 2 r t y 1 2 5 u t i ",
"X X p o o o o o o o a s : : q   d d f g : : 2 h j j r k r l j z ",
"$ # o o o o o o # x c & : : : v q q b n > m M u j j N k B B B V ",
"o o o o o o o o 9 C Z A : : : : : : n , B B r l j l S D m m m F ",
"o o o p G H # o 9 J & * : : : : b K L P l l N k P t I 2 U b Y Y ",
"o o # T 7 R E o o p W Q : : : : U 5 r t j j ! D ~ y y ^ / ( : : ",
"o p + s * Z ) H $ o a s : : q _ ` ' ] [ { ! L } / { j y | 3 : : ",
"$ G &  ...X.o.0 O.$ a s : : +.@.#.$.%.&.! D 3 Y *.N l N | } v : ",
"$ + f : : : ..Z =.C -.. : : = - o o ;.:.>.,.: : <.1.2.1.3.4.Q d ",
"$ + f : : : : g =     5.g g   C a a J 6.3 Y : : 7.8.9.0.q.O O w.",
"$ + f : : : : : v ; 8 8 8 8 s @.-.-.8 = : : : : ; @.X # o o o e.",
"$ + f : : q +.A * r.e.x x x X Q = = A v : : : : ..= r.e.9 # 9 X ",
"$ + f : q   8 R 0 T $ o o o x & : : : : : : : : : : ; R G O.+ s ",
"o G &  .* 8 X O.O.a o o o a X d : : : : : : : : : : ..* 0 w.8 * ",
"o O.- @.-.+ a o o o o o # t.y.u.: : : : : : : : : : : q ; &   q ",
"o $ a p a 9 $ i.O.p o o i.@.; g : : : : : : : : b U U p.a...q Y ",
"o o o o o o $ T 0 w.$ o $ X @.o.: : : : : : : : > , 1 , s.b : ,.",
"o o o o o i.H 0   8 H p o $ H d.: : q A * * f.p.g.u t u , > n D ",
"o o o o $ X 8   X.  & w.o o x & : : * 0 - % h.j.k.l j l P l.S ! ",
"o o o i.H r.A : : : ..s H H + . : : f G o o z.x.y r { l j l u P ",
"o o # X 7   q : : : v   & c.Z A : : Z G o o v.x.b./ 1 y l u 1 2 ",
"o i.G @.* : : : : A f f f w : : ..* 8 H o o n.m.M.} 2 I ^ S 4 b ",
"o H N.  q : : : ..& w.+ w.d v v * @.H a o o B.V.C.f.3 Z.A.> ,.Y ",
"$ + f : : : : : g r.# o # -.c.c.8 H o o o o o o + & * : : : : : ",
"$ + f : q q q q g s a o o O.G G H a o o o o o o p X 8 g : : : : ",
"$ + . A . & S.  g D.- e.o o o o o o o o o o o o o # @.+.: : : g ",
"$ F.D.d - e.G r.G.G.. - o o o o o o o 9 9 o o o # p H.+.: : q   ",
"o e.-.e E o # X s 7 8 + o o o o o o O.t.+ a o o e.e c...: q ; r.",
"o # p a $ o o 9 O.O.O.9 o o o # 9 9 T d Q H a 9 e o.g : : A r.e.",
"o o o o o o o o o o o o o o 9 w.@.@.J.A * s @.@.S.q : : :  .-.a ",
"o o o o o o o o o o o # 9 9 e.y.K.K.+.q : q g g q : : : :  .@.O."
};
