/* XPM */
static char *result[] = {
/* columns rows colors chars-per-pixel */
"32 32 252 2 ",
"   c #1E2834",
".  c #1F2935",
"X  c #202A36",
"o  c #212C38",
"O  c #212D39",
"+  c #222E39",
"@  c #23333B",
"#  c #23303C",
"$  c #23313C",
"%  c #25333D",
"&  c #24353C",
"*  c #25363C",
"=  c #25343F",
"-  c #263540",
";  c #273641",
":  c #283842",
">  c #293D42",
",  c #293F43",
"<  c #283844",
"1  c #283944",
"2  c #293945",
"3  c #2A3B45",
"4  c #2A3E45",
"5  c #2A3C46",
"6  c #2A3C47",
"7  c #2D3F45",
"8  c #2B3E48",
"9  c #2B4345",
"0  c #2C4747",
"q  c #2C4A46",
"w  c #2E4B47",
"e  c #2D424B",
"r  c #2D404C",
"t  c #2D414C",
"y  c #2D414D",
"u  c #2E414D",
"i  c #2E424D",
"p  c #2E434D",
"a  c #2F434D",
"s  c #2E434E",
"d  c #2F434F",
"f  c #2E444D",
"g  c #2E454D",
"h  c #2F444E",
"j  c #2F464E",
"k  c #2F464F",
"l  c #30504E",
"z  c #32584E",
"x  c #304650",
"c  c #314752",
"v  c #314851",
"b  c #314853",
"n  c #324952",
"m  c #334D50",
"M  c #324E52",
"N  c #324954",
"B  c #324A54",
"V  c #334A54",
"C  c #334B55",
"Z  c #344D56",
"A  c #344C57",
"S  c #344E57",
"D  c #354E57",
"F  c #355150",
"G  c #375052",
"H  c #335451",
"J  c #345B51",
"K  c #355F52",
"L  c #365B56",
"P  c #365059",
"I  c #365358",
"U  c #36515A",
"Y  c #37515A",
"T  c #37525B",
"R  c #38525B",
"E  c #38535C",
"W  c #38555C",
"Q  c #38545D",
"!  c #39555D",
"~  c #39565E",
"^  c #3A565E",
"/  c #3A575F",
"(  c #375E58",
")  c #375F58",
"_  c #3B585F",
"`  c #3E5C5C",
"'  c #376056",
"]  c #386059",
"[  c #39625A",
"{  c #3A675A",
"}  c #3B615F",
"|  c #3C6D5D",
" . c #3E745F",
".. c #3E765F",
"X. c #3A5860",
"o. c #3B5961",
"O. c #3B5A60",
"+. c #3B5A61",
"@. c #3C5A61",
"#. c #3D5B61",
"$. c #3C5A62",
"%. c #3C5B62",
"&. c #3D5B62",
"*. c #3D5E61",
"=. c #3D5C62",
"-. c #3C5D62",
";. c #3D5D62",
":. c #3D5C63",
">. c #3D5D63",
",. c #3E5D62",
"<. c #3E5D63",
"1. c #3D5F63",
"2. c #3E5E63",
"3. c #3F5E63",
"4. c #3E5F63",
"5. c #3F5F63",
"6. c #3F5F64",
"7. c #3D6062",
"8. c #3F6064",
"9. c #3F6564",
"0. c #3F6765",
"q. c #3F7263",
"w. c #406064",
"e. c #406164",
"r. c #416164",
"t. c #406165",
"y. c #416165",
"u. c #416264",
"i. c #406265",
"p. c #416265",
"a. c #416365",
"s. c #426365",
"d. c #416465",
"f. c #426465",
"g. c #436665",
"h. c #426466",
"j. c #436466",
"k. c #436566",
"l. c #406766",
"z. c #436666",
"x. c #436667",
"c. c #446666",
"v. c #446667",
"b. c #446767",
"n. c #436866",
"m. c #406A66",
"M. c #416B67",
"N. c #456867",
"B. c #456967",
"V. c #456C65",
"C. c #456868",
"Z. c #456968",
"A. c #466968",
"S. c #466A68",
"D. c #466B68",
"F. c #476C69",
"G. c #456F69",
"H. c #486B69",
"J. c #486C69",
"K. c #486D69",
"L. c #486E69",
"P. c #486D6A",
"I. c #486E6A",
"U. c #496E6A",
"Y. c #486F6A",
"T. c #496F6A",
"R. c #4A6F6A",
"E. c #4A6F6B",
"W. c #407064",
"Q. c #417167",
"!. c #417467",
"~. c #417962",
"^. c #467069",
"/. c #437769",
"(. c #47746A",
"). c #4A706B",
"_. c #4A716B",
"`. c #4B716B",
"'. c #4B726B",
"]. c #4B736B",
"[. c #4A746B",
"{. c #4B716C",
"}. c #4B726C",
"|. c #4C726C",
" X c #4C736C",
".X c #4A746C",
"XX c #4B746C",
"oX c #4B756C",
"OX c #4C746C",
"+X c #4C756C",
"@X c #4C766C",
"#X c #4C776C",
"$X c #4C776D",
"%X c #457B6A",
"&X c #487D6B",
"*X c #4B786C",
"=X c #4C786D",
"-X c #4C796D",
";X c #4C7A6D",
":X c #4C7B6D",
">X c #4B7C6D",
",X c #4C7C6D",
"<X c #4C7D6D",
"1X c #4C7E6D",
"2X c #4C7E6E",
"3X c #4C7F6E",
"4X c #438265",
"5X c #438066",
"6X c #438166",
"7X c #448266",
"8X c #45816A",
"9X c #4B806D",
"0X c #48826C",
"qX c #4C806D",
"wX c #4C806E",
"eX c #4C816E",
"rX c #4C826E",
"tX c #4A846C",
"yX c #4A856D",
"uX c #4C866E",
"iX c #4C866F",
"pX c #4C876F",
"aX c #46886A",
"sX c #478A6B",
"dX c #478C6B",
"fX c #488A6D",
"gX c #4B886F",
"hX c #4C886F",
"jX c #4C8A6F",
"kX c #4C8B6F",
"lX c #488C6D",
"zX c #488C6E",
"xX c #4B8E6F",
"cX c #4C8C6F",
"vX c #4C8D6F",
"bX c #4C8E6F",
"nX c #49906D",
"mX c #49906E",
"MX c #4A926F",
"NX c #4C8D70",
"BX c #4C8F70",
"VX c #4C9170",
"CX c #4C9270",
"ZX c #4C9370",
"AX c #4B9670",
"SX c #4B9770",
"DX c #4C9570",
"FX c #4C9571",
"GX c #4C9771",
"HX c #4C9871",
"JX c #4C9971",
"KX c None",
/* pixels */
"KXKXKXKXKXKXKXKXKXKXKXKXKXKXKXKXKXKXKXKXKXKXKXKXKXKXKXKXKXKXKXKX",
"KXKXKXKXKXKXKXKXKXKXKXKXKXr r r r r r r < o   KXKXKXKXKXKXKXKXKX",
"KXKXKXKXKXKXKXKXKXKXKXKXKXy y y y y y y 2 O . KXKXKXKXKXKXKXKXKX",
"KXKXKXKXKXKXKXKXKXKXKXKXKXc b b b b b b s 3 - KXKXKXKXKXKXKXKXKX",
"k j KXKXKXKXKXKXKXKXi i d D Q Q Q Q Q Q T P h # X KXKXk k j p t ",
"[ L 9 KXKXKXKXKXKXc N B C E o.o.o.o.o.o.o.o.S 8 ; KXl ] [ ( M p ",
"aX .0 o KXKX+ ; u A Q ^ / O.%.%.%.%.%.%.%.o.~ Y f % J 7XsX5X) g ",
"SX6XH 1 $ = 6 a V T o.5.k.k.k.k.k.k.k.k.e.%.o.o.S e { nXJXdX' 4 ",
"mX8X} v : 5 Z ! _ @.,.v.).).).).).).).).A.5.=.&._ W W.lXnX4Xz & ",
"q.Q.7.U x n ~ 5.j.z.b.K. X X X X X X X XT.C.z.z.e.%.0.!.| K q @ ",
"I -.+.X.~ / =.k.T._.`.'. X X X XOX@X$X$XoX'._._.N.2.2.*.m > * KX",
"R o.o.o.+.3.c.J.'. X X X X X X X$XrXhXhXeX#X X XU.B.N.g.` G 7 , ",
"#.=.=.=.<.h.T.|. X X X X X X X X;XvXGXHXbX<X@X X X}.}.'.].V.F w ",
"A.A.A.A.A.J.`. X X X X X X X X X;XbXJXJXDXcXeX@X X X X+X3XtX~...",
" X X X X X X X X X X X X X X X X-XkXDXHXAXMXyX[.E.E.`.@XpXDXJXHX",
" X X X X X X X X X X X X X X X X+X,XuXZXzX/.M.d.u.p.A.XXiXDXJXDX",
"R.I.U.).}. X X X X X X X X X X X X X:XjX0Xl.>.o.o.+.a.Y.9XBXCXcX",
"x.t.p.b.T. X X X X X X X X X X X X X@X,X*XY.k.:.o.o.>.a.^.>X1X<X",
"4.o.+.6.A.R.}. X X X X X X X X X X X X X X XF.i.,.+.o.%.v.`. X X",
"%.o.o.%.6.b.). X X X X X X X X X X X X X XOX'.I.k.%.o.&.v.`. X X",
"e.5.%.o.@.a.T. X X X X X X X X X X X X X#X,X2X2XG.;.=.r.S.`. X X",
"I.Z.2.o.%.s.T. X X X X X X X X X X X X X<XNXVXCX%X1.s.J.).|. X X",
"|.F.8.=.y.Z.). X X X X X X X X X X X@X<XhXFXJXJX0Xn.S.`. X X X X",
"|.F.w.e.F.`.|. X X X X X X X X X X X:XcXFXHXJXJXgX.X`. X X X X X",
" XR.N.Z.). X XU.A.C.Z.U. X X'.J.C.C.(.xXHXJXZXcXqX+X X X X X X X",
" X X}.}. X X`.C.<.$.=.N. X X).a.$.$.m.fXHXJXcX;XOX X X X X X X X",
" X X X X X X`.N.=.o.%.b.|.H.k.2.o.o.9.&XpXpXwX@X X X X X X X X X",
" X X X X X X`.N.=.o.%.v._.f.@.o.o.+.w.I.OXOXOX X X X X X X X X X",
" X X X X X X'.L.b.8.@.8.k.2.o.o.=.s.A.). X X X X X X X X X X X X",
" X|.`._.`.'. X{.U.j.@.@.$.%.%.@.<.A.).}. X X X X X X X X X X X X",
" XT.N.h.k.S.).J.k.6.o.o.@.p.x.3.%.e.b.). X X X X X X X X X X X X",
"'.F.w.$.%.p.D.v.:.@.o.%.3.Z.U.p.o.@.w.P. X X+X=X-X-X@XOX@X=X-X#X"
};
