/* XPM */
static char *result[] = {
/* columns rows colors chars-per-pixel */
"32 32 180 2 ",
"   c #1E2733",
".  c #1E2833",
"X  c #1F2834",
"o  c #1F2934",
"O  c #1F2935",
"+  c #202B36",
"@  c #222E38",
"#  c #222E39",
"$  c #232E39",
"%  c #232F3A",
"&  c #23303A",
"*  c #24303A",
"=  c #24313A",
"-  c #24313B",
";  c #24323B",
":  c #26343D",
">  c #26353D",
",  c #27353E",
"<  c #27373F",
"1  c #28373F",
"2  c #28383F",
"3  c #293940",
"4  c #283841",
"5  c #2A3A41",
"6  c #293A42",
"7  c #2A3A42",
"8  c #2A3B42",
"9  c #293944",
"0  c #2B3D44",
"q  c #2D3F45",
"w  c #2B3E48",
"e  c #284141",
"r  c #294242",
"t  c #2A4242",
"y  c #2D4146",
"u  c #2C4945",
"i  c #304549",
"p  c #30464F",
"a  c #32484C",
"s  c #32494C",
"d  c #33494D",
"f  c #314D4C",
"g  c #304750",
"h  c #324850",
"j  c #324A53",
"k  c #354E50",
"l  c #364F51",
"z  c #364F52",
"x  c #334B54",
"c  c #364F55",
"v  c #364F58",
"b  c #375051",
"n  c #375153",
"m  c #365752",
"M  c #385153",
"N  c #385253",
"B  c #385354",
"V  c #395454",
"C  c #395455",
"Z  c #3A5556",
"A  c #3B5657",
"S  c #3B5757",
"D  c #355F52",
"F  c #3A565A",
"G  c #38545C",
"H  c #38545D",
"J  c #3D5A5A",
"K  c #3C5A5F",
"L  c #3F5D5C",
"P  c #3F5E5C",
"I  c #3A6C59",
"U  c #3B5961",
"Y  c #3B5A61",
"T  c #3C5A60",
"R  c #3C5A61",
"E  c #3C5A62",
"W  c #3D5B62",
"Q  c #3D5C61",
"!  c #3D5C62",
"~  c #3C5D62",
"^  c #3D5D62",
"/  c #3E5C62",
"(  c #3E5D63",
")  c #3E5E63",
"_  c #3F5E63",
"`  c #3F5F64",
"'  c #3F6064",
"]  c #40605E",
"[  c #42625F",
"{  c #436360",
"}  c #406063",
"|  c #436460",
" . c #426560",
".. c #436461",
"X. c #436563",
"o. c #446662",
"O. c #416165",
"+. c #406264",
"@. c #416365",
"#. c #426466",
"$. c #436566",
"%. c #436666",
"&. c #446666",
"*. c #456766",
"=. c #446767",
"-. c #466A65",
";. c #476B66",
":. c #466A67",
">. c #456E64",
",. c #466968",
"<. c #466A68",
"1. c #466B68",
"2. c #476B69",
"3. c #476C69",
"4. c #486D68",
"5. c #496D68",
"6. c #486C69",
"7. c #486D69",
"8. c #496D69",
"9. c #496E69",
"0. c #496F69",
"q. c #4A6F69",
"w. c #486D6A",
"e. c #486E6A",
"r. c #496E6A",
"t. c #417167",
"y. c #427167",
"u. c #407B61",
"i. c #437964",
"p. c #437E65",
"a. c #447168",
"s. c #457269",
"d. c #49706A",
"f. c #4A706A",
"g. c #4A716B",
"h. c #4B716B",
"j. c #49726B",
"k. c #4B726B",
"l. c #497569",
"z. c #4B756B",
"x. c #4B716C",
"c. c #4B726C",
"v. c #4C726C",
"b. c #4C736C",
"n. c #4C746C",
"m. c #4C756D",
"M. c #4C766C",
"N. c #4C776C",
"B. c #4C786D",
"V. c #4C796D",
"C. c #4C7C6D",
"Z. c #4C7E6D",
"A. c #4C7D6E",
"S. c #4C7E6E",
"D. c #448566",
"F. c #4C816E",
"G. c #4A876D",
"H. c #4C846F",
"J. c #4C866E",
"K. c #4C876F",
"L. c #458968",
"P. c #4C886F",
"I. c #4C8B6F",
"U. c #4C8C6F",
"Y. c #4C8D6F",
"T. c #4A946E",
"R. c #4C8F70",
"E. c #4C9070",
"W. c #4C9270",
"Q. c #4C9370",
"!. c #4B9770",
"~. c #4C9470",
"^. c #4C9570",
"/. c #4C9471",
"(. c #4C9571",
"). c #4C9671",
"_. c #4C9771",
"`. c #4C9871",
"'. c #4C9971",
"]. c None",
/* pixels */
"s.@.! U U H x g p w %       ].].].].].].].].].].].].].].].].].].",
"y.^ Y R ( ) / Q K c 0 * O   ].].].].].].].].].].].].].].].].].].",
"t.~ U ( &.2.2.2.<.X.J i $   ].].].].].].].].].].].].].].].].].].",
"a.+.' #.8.c.c.c.h.-.L d =   ].].].].].].].].].].].].].].].].].].",
"j.7.6.e.h.b.b.b.f.P i 1 ].].].].].].].].].].].].].].].].].].].].",
"b.v.v.v.b.b.b.b.q.S < o ].].].].].].].].].].].].].].].].].].].].",
"b.b.b.b.b.b.b.b.q.A ,   ].].].].].].].].].].].].].].].].].].].].",
"b.b.b.b.b.b.b.b.f.] s 8 ].].].].].].].].].].].].].].].].].].].].",
"b.b.b.b.b.b.b.b.v.9...k - ].].].].].].].].].].].].].].].].].].].",
"d.b.b.b.b.b.b.b.b.b.4.B ; ].].].].].].].].].].].].].].].].].].].",
"1.k.b.b.b.b.b.b.b.b.4.B ; ].].].].].].].].].].].].].].].].].].].",
",.h.b.b.b.b.b.b.b.b.4.B ;   ].].].].].].].].].].].].].].].].].].",
"<.k.b.b.b.b.b.b.b.b.4.B ;   ].].].].].].].].].].].].].].].].].].",
"r.v.b.b.b.b.b.b.b.b.4.B ;   ].].].].].].].].].].].].].].].].].].",
"k.n.M.B.B.B.B.M.n.q.o.l ;   ].].].].].].].].].].].].].].].].].].",
"b.N.F.K.P.P.K.F.z.| b y * ].].].].].].].].].].].].].].].].].].].",
"N.Z.Y.(.).).^.G.>.C 5 @ ].].].].].].].].].].].].].].].].].].].].",
"F.I.~.'.'.'.!.p.m q ].].].].].].].].].].].].].].].].].].].].].].",
"U.).`.'.'.T.L.I t + ].].].].].].].].].].].].].].].].].].].].].].",
"/.`.'.'.'.D.D u ].].].].].].].].].].].].].].].].].].].].].].].].",
"W.Q._.'.'.u.e   ].].].].].].].].].].].].].].].].].].].].].].].].",
"S.H.E.`.`.u.r X ].].].].].].].].].].].].].].].].].].].].].].].].",
"b.V.J.R.E.i.f 2 ].].].].].].].].].].].].].].].].].].].].].].].].",
"b.m.V.C.A.l. .M 3 ].].].].].].].].].].].].].].].].].].].].].].].",
"b.x.r.w.g.b.k.[ a 7 ].].].].].].].].].].].].].].].].].].].].].].",
"c.r.$.#.7.c.c.5.{ z > ].].].].].].].].].].].].].].].].].].].].].",
"w.=.) ( %.3.g.b.q.A ,   ].].].].].].].].].].].].].].].].].].].].",
"$.) E Y T } :.0.;.Z ,   ].].].].].].].].].].].].].].].].].].].].",
"` R U G j h n V N a : ].].].].].].].].].].].].].].].].].].].].].",
"E Y E v 9 # & = = & ].].].].].].].].].].].].].].].].].].].].].].",
"U W O.F 4         ].].].].].].].].].].].].].].].].].].].].].].].",
"E _ *.L 6 . ].].].].].].].].].].].].].].].].].].].].].].].].].]."
};
