/* XPM */
static char *result[] = {
/* columns rows colors chars-per-pixel */
"32 32 163 2 ",
"   c #1E2733",
".  c #1E2834",
"X  c #1F2834",
"o  c #202B36",
"O  c #212C37",
"+  c #222E39",
"@  c #232F39",
"#  c #232F3A",
"$  c #232F3B",
"%  c #23303A",
"&  c #24313A",
"*  c #24313B",
"=  c #24323B",
"-  c #23303C",
";  c #24303C",
":  c #24313C",
">  c #24313D",
",  c #25343E",
"<  c #27353E",
"1  c #273640",
"2  c #293941",
"3  c #293A43",
"4  c #2B3C43",
"5  c #293A45",
"6  c #293B45",
"7  c #2C3D44",
"8  c #2C3E45",
"9  c #2B3D49",
"0  c #2C3F4A",
"q  c #2A4244",
"w  c #2C4047",
"e  c #2E4147",
"r  c #2E4248",
"t  c #2C404A",
"y  c #2D404C",
"u  c #2E424D",
"i  c #2F444D",
"p  c #2F454D",
"a  c #2F474D",
"s  c #2E4948",
"d  c #304549",
"f  c #30454E",
"g  c #32484C",
"h  c #33494D",
"j  c #30494F",
"k  c #33494E",
"l  c #32484F",
"z  c #354D4F",
"x  c #314650",
"c  c #314750",
"v  c #314850",
"b  c #304A50",
"n  c #324952",
"m  c #344B53",
"M  c #324E51",
"N  c #354C50",
"B  c #364F51",
"V  c #374F51",
"C  c #334A54",
"Z  c #334B54",
"A  c #344D56",
"S  c #364F58",
"D  c #375053",
"F  c #375153",
"G  c #385254",
"H  c #385354",
"J  c #3B5657",
"K  c #365B57",
"L  c #365E55",
"P  c #395358",
"I  c #385459",
"U  c #39555D",
"Y  c #3E5C5A",
"T  c #3C595D",
"R  c #3D5B5F",
"E  c #3E5C5D",
"W  c #3F5D5E",
"Q  c #3E5D5F",
"!  c #386258",
"~  c #3D625A",
"^  c #39645B",
"/  c #3C6B5E",
"(  c #3D6C5E",
")  c #3C725C",
"_  c #3B5860",
"`  c #3C5A62",
"'  c #3C5B62",
"]  c #3E5C61",
"[  c #3E5D62",
"{  c #3E5D63",
"}  c #405F5F",
"|  c #41615E",
" . c #42615F",
".. c #42625F",
"X. c #446662",
"o. c #456763",
"O. c #406164",
"+. c #406165",
"@. c #426465",
"#. c #426466",
"$. c #436566",
"%. c #446667",
"&. c #456965",
"*. c #466965",
"=. c #456867",
"-. c #466966",
";. c #476B66",
":. c #466A67",
">. c #476A67",
",. c #486C66",
"<. c #486C67",
"1. c #456968",
"2. c #476B69",
"3. c #486D68",
"4. c #486D69",
"5. c #496E68",
"6. c #496F69",
"7. c #486D6A",
"8. c #496E6A",
"9. c #496F6A",
"0. c #4A6F6A",
"q. c #407763",
"w. c #407961",
"e. c #427C65",
"r. c #4A7069",
"t. c #4B706A",
"y. c #4B716A",
"u. c #4A706B",
"i. c #4A716B",
"p. c #4B716B",
"a. c #4B726B",
"s. c #4A736B",
"d. c #4C726C",
"f. c #4C736C",
"g. c #4C746C",
"h. c #4C756C",
"j. c #4C766C",
"k. c #4C776C",
"l. c #4B786B",
"z. c #4C7C6D",
"x. c #4C7D6D",
"c. c #4C7E6D",
"v. c #478669",
"b. c #4C806E",
"n. c #4C826E",
"m. c #458868",
"M. c #4C886F",
"N. c #4C8B6E",
"B. c #4C8A6F",
"V. c #488C6C",
"C. c #498F6D",
"Z. c #4C8C6F",
"A. c #49916D",
"S. c #49916E",
"D. c #4C9370",
"F. c #4B9670",
"G. c #4C9470",
"H. c #4C9670",
"J. c #4C9671",
"K. c #4C9870",
"L. c #4C9871",
"P. c #4C9971",
"I. c None",
/* pixels */
"I.I.I.I.I.I.I.I.I.I.I.I.I.I.I.I.I.I.I.I.I.I.I.I.I.I.I.I.I.I.I.I.",
"I.I.I.I.I.I.I.I.I.I.I.I.I.I.I.I.I.I.I.I.I.I.I.I.I.I.I.I.I.I.I.I.",
"I.I.I.I.I.I.I.I.I.I.I.I.I.I.I.I.I.I.I.I.I.I.I.I.I.I.I.I.I.I.I.I.",
"I.I.I.I.I.I.I.I.I.I.I.I.I.I.I.I.I.I.I.I.I.I.I.I.I.I.I.I.I.I.I.I.",
"I.I.I.I.I.I.I.I.I.I.I.I.I.I.I.I.I.I.I.I.I.I.I.I.I.I.I.I.I.I.I.I.",
"I.I.I.I.I.I.I.I.I.I.I.I.I.I.I.I.I.I.I.I.I.I.I.I.I.I.I.I.I.I.I.I.",
"I.I.I.I.I.I.I.I.I.I.I.I.I.I.I.I.I.I.I.I.I.I.I.I.I.I.I.I.I.I.I.I.",
"I.I.I.I.I.I.I.I.I.I.I.I.I.I.I.I.I.I.I.I.I.I.I.I.I.I.I.I.I.I.I.I.",
"I.I.b b b j I.I.@ % @ O X I.I.I.I.I.I.I.I.I.I.I.I.I.I.I.I.I.I.I.",
"I.M ^ / ( ! q 2 g N h 4 O   I.I.I.I.I.I.I.I.I.I.I.I.I.I.I.I.I.I.",
"a K e.C.S.w.s d | <.o.B &   I.I.I.I.I.I.I.I.I.I.I.I.I.I.I.I.I.I.",
"L q.V.K.P.v.~ Y ,.f.3.H =   I.I.I.I.I.I.I.I.I.I.I.I.I.I.I.I.I.I.",
") A.L.L.H.N.l.y.a.r.o.V =   I.I.I.I.I.I.I.I.I.I.I.I.I.I.I.I.I.I.",
"m.F.P.D.M.c.k.f.y...z 8 I.I.I.I.I.I.I.I.I.I.I.I.I.I.I.I.I.I.I.I.",
"J.G.G.Z.z.t.;.*.X.G < I.I.I.I.I.I.I.I.I.I.I.I.I.I.I.I.I.I.I.I.I.",
"B.n.b.x.j.X.z r e 7 I.I.I.I.I.I.I.I.I.I.I.I.I.I.I.I.I.I.I.I.I.I.",
"c.h.f.f.f. .w ; ; $ I.I.I.I.I.I.I.I.I.I.I.I.I.I.I.I.I.I.I.I.I.I.",
"k.g.f.f.f.&.I C n t : I.I.I.I.I.I.I.I.I.I.I.I.I.I.I.I.I.I.I.I.I.",
"f.f.f.f.f.8.@.{ _ Z 5 > I.I.I.I.I.I.I.I.I.I.I.I.I.I.I.I.I.I.I.I.",
"f.f.f.f.f.p.7.%.[ U A 0 + I.I.I.I.I.I.I.I.I.I.I.I.I.I.I.I.I.I.I.",
"f.f.f.f.f.f.f.4.#.+.] l # I.I.I.I.I.I.I.I.I.I.I.I.I.I.I.I.I.I.I.",
"f.f.f.f.f.f.f.p.9.8.-.D * . . I.I.I.I.I.I.I.I.I.I.I.I.I.I.I.I.I.",
"f.f.f.f.f.f.f.f.f.f.5.J 3 - - I.I.I.I.I.I.I.I.I.I.I.I.I.I.I.I.I.",
"f.f.f.f.f.f.f.f.f.f.6.E f 9 9 I.I.I.I.I.I.I.I.I.I.I.I.I.I.I.I.I.",
"f.f.f.f.f.f.f.f.f.f.0.W c y y I.I.I.I.I.I.I.I.I.I.I.I.I.I.I.I.I.",
"f.f.f.f.f.f.f.f.f.f.0.W c I.I.I.I.I.I.I.I.I.I.I.I.I.I.I.I.I.I.I.",
"f.f.f.f.f.f.f.f.a.>.} P x I.I.I.I.I.I.I.I.I.I.I.I.I.I.I.I.I.I.I.",
"f.f.f.f.f.f.d.a.6.} m u I.I.I.I.I.I.I.I.I.I.I.I.I.I.I.I.I.I.I.I.",
"f.f.f.f.f.u.=.Q F k i I.I.I.I.I.I.I.I.I.I.I.I.I.I.I.I.I.I.I.I.I.",
"f.f.p.p.i.:.R v , o I.I.I.I.I.I.I.I.I.I.I.I.I.I.I.I.I.I.I.I.I.I.",
"f.u.1.$.#.T p 1 O   I.I.I.I.I.I.I.I.I.I.I.I.I.I.I.I.I.I.I.I.I.I.",
"s.2.O.' ` S 6 ; $ + I.I.I.I.I.I.I.I.I.I.I.I.I.I.I.I.I.I.I.I.I.I."
};
