/* XPM */
static char *result[] = {
/* columns rows colors chars-per-pixel */
"32 32 11 1 ",
"  c #1C5238",
". c #176B36",
"X c #176C36",
"o c #167337",
"O c #167637",
"+ c #167737",
"@ c #244740",
"# c #2A4046",
"$ c #36534E",
"% c #329134",
"& c None",
/* pixels */
"&&&&&&&&&&&&&&&&&&&&&&&&& @+++++",
"&&&&&&&&&&&&&&&&&&&&&&&&&.++++++",
"&&&&&&&&&&&&&&&&&&&&&&&&&.++++++",
"&&&&&&&&&&&&&&&&&&&&&&&&&X++++++",
"&&&&&&&&&&&&&&&&&&&&&&&&&o++++++",
"&&&&&&&&&&&&&&&&&&&&&&&&&+++++++",
"&&&&&&&&&&&&&&&&&&&&&&&&&++o++++",
"&&&&&&&&&&&&&&&&&&&&&&&&++++O+++",
"&&&&&&&&&&&&&&&&&&&&&&&++++++++o",
"&&&&&&&&&&&&&&&&&&&&&&&&++++++++",
"&&&&&&&&&&&&&&&&&&&&&&&&++++++++",
"&&&&&&&&&&&&&&&&&&&&&&&&++++++++",
"&&&&&&&&&&&&&&&&&&&&&&&&++++++++",
"&&&&&&&&&&&&&&&&&&&&&&&&++++++++",
"&&&&&&&&&&&&&&&&&&&&&&&&++++++++",
"&&&&&&&&&&&&&&&&&&&&&&&&$$$+++++",
"&&&&&&&&&&&&&&&&&&&&&&&&$%%$++++",
"&&&&&&&&&&&&&&&&&&&&&&&&#%%#++++",
"&&&&&&&&&&&&&&&&&&&&&&&&%%++++++",
"&&&&&&&&&&&&&&&&&&&&&&&&++++++++",
"&&&&&&&&&&&&&&&&&&&&&&&&&+++++++",
"&&&&&&&&&&&&&&&&&&&&&&&&&+++++++",
"&&&&&&&&&&&&&&&&&&&&&&&&&+++++++",
"&&&&&&&&&&&&&&&&&&&&&&&&++++++++",
"&&&&&&&&&&&&&&&&&&&&&&&+++++++++",
"&&&&&&&&&&&&&&&&&&&&&&&&++++++++",
"&&&&&&&&&&&&&&&&&&&&&&&&&&++++++",
"&&&&&&&&&&&&&&&&&&&&&&&&&&&&++++",
"&&&&&&&&&&&&&&&&&&&&&&&&&&&&++++",
"&&&&&&&&&&&&&&&&&&&&&&&&&&&&++++",
"&&&&&&&&&&&&&&&&&&&&&&&&&&&&++++",
"&&&&&&&&&&&&&&&&&&&&&&&&&&&&&&&+"
};
