/* XPM */
static char *result[] = {
/* columns rows colors chars-per-pixel */
"32 32 10 1 ",
"  c #1E2733",
". c #1A7A3E",
"X c #2D404C",
"o c #A85738",
"O c #1FA04D",
"+ c #46BC49",
"@ c #9BDB5E",
"# c #3E719E",
"$ c #BDEDE7",
"% c None",
/* pixels */
"%%%%%%%%%%%%%%%%%%%%%%%%%%%%%%%%",
"%%%%%%%%%%%%%%%%%%%%%%%%%%%%%%%%",
"%%%%%%%%%%%%%%%%%%%%%%%%%%%%%%%%",
"%%%%%%%%%%%%%%%%%%%%%%%%%%%%%%%%",
"%%%%%%%%%%%%%%%%%%%%%%%%%%%%%%%%",
"%%%%%%%%%%%%%%%%%%%%%%%%%%%%%%%%",
"%%%%%%%%%%%%%%%%%%%%%%%%%%%%%%%%",
"%%%%%%%%%%%%%%%%%%%%%%%%%%%%%%%%",
"%%%%%%%%%%%%%%%%%%%%%%%%%%%%%%%%",
"%%%%%%%%%%%%%%%%%%%%%%%%%%%%%%%%",
"%%%%%%%%%%%%%%%%%%%%%%%%%%%%%%%%",
"%%%%%%%%%%%%%%%%%%%%%%%%%%%%%%%%",
"%%%%%%%%%%%%%%%%%%%%%%%%%%%%%%%%",
"%%%%%%%%%%%%%%%%%%%%%%%%%%%%%%%%",
"%%%%%%%%%%%%%%%%%%%%%%%%%%%%%%%%",
"%%%%%%%%%%%%%%%%%%%%%%%%%%%%%%%%",
"%%%%%%%%%%%%%%%%%%%%%%%%%%%%%%%%",
"%%%%%%%%%%%%%%%%%%%%%%%%%%%%%%%%",
"%%%%%%%%%%%%%%%%%%%%%%%%%%%%%%%%",
"%%%%%%%%%%%%%%%%%%%%%%%%%%%%%%%%",
"%%%%%%%%%%%%%%%%%%%%%%%%%%%%%%%%",
"%%%%%%%%%%%%%%%%%%%%%%%%%%%%%%%%",
"%%%%%%%%%%%%%%%%%%%%%%%%O%OO%%OO",
"%%%%%%%%%%%%%%%%%%%%%%%%OOOOOOOO",
"%%%%%%%%%%%%%%%%%%%%%OOOOOO@O@O@",
"%%%%%%%%%%%%%%%%%%%%%%OOOOOO@.@O",
"%%%%%%%%%%%%%%%%%%%%%%OOOOOOO@@@",
"%%%%%%%%%%%%%%%%%%%%OOOOOOOO@+@ ",
"%%%%%%%%%%%%%%%%%%%%OOOOOOOO+@ o",
"%%%%%%%%%%%%%%%%%%%%%OOOOOOO@@Xo",
"%%%%%%%%%%%%%%%%%%%%%OOOOOOOO+X$",
"%%%%%%%%%%%%%%%%%%%%OOOOOOOO@+X#"
};
