/* XPM */
static char *result[] = {
/* columns rows colors chars-per-pixel */
"32 32 11 1 ",
"  c #1E2733",
". c #24523B",
"X c #1A7A3E",
"o c #2D404C",
"O c #3B5961",
"+ c #4C736C",
"@ c #1FA04D",
"# c #46BC49",
"$ c #9BDB5E",
"% c #3E719E",
"& c None",
/* pixels */
"% .$@@@@@&&&&&&&&&&&&&&&&&&&&&&&",
"%o$$$@@@@&&&&&&&&&&&&&&&&&&&&&&&",
"% $@@@@@&&&&&&&&&&&&&&&&&&&&&&&&",
"% X$#@@@@&&&&&&&&&&&&&&&&&&&&&&&",
"o$$@@O@@@&&&&&&&&&&&&&&&&&&&&&&&",
" $##@$$@@@&&&&&&&&&&&&&&&&&&&&&&",
"% $@@$$@@@&&&&&&&&&&&&&&&&&&&&&&",
"%o$@@OO##@&&&&&&&&&&&&&&&&&&&&&&",
"%o#$@@+##O&&&&&&&&&&&&&&&&&&&&&&",
"% #$$@X++X&&&&&&&&&&&&&&&&&&&&&&",
" X#@@@@@@@&&&&&&&&&&&&&&&&&&&&&&",
"oXX@$@@@@&&&&&&&&&&&&&&&&&&&&&&&",
" @#$@@@@@&&&&&&&&&&&&&&&&&&&&&&&",
"% #$$@@@@&&&&&&&&&&&&&&&&&&&&&&&",
"o$$@@@@@@@&&&&&&&&&&&&&&&&&&&&&&",
" $$##@@@@@&&&&&&&&&&&&&&&&&&&&&&",
"%o@#@@@@&&&&&&&&&&&&&&&&&&&&&&&&",
"%o$@@@@@&&&&&&&&&&&&&&&&&&&&&&&&",
"% $@#@@@@@&&&&&&&&&&&&&&&&&&&&&&",
"% X$$@@@@@&&&&&&&&&&&&&&&&&&&&&&",
"o$$@@@@@&&&&&&&&&&&&&&&&&&&&&&&&",
" $#@$@@@@@&&&&&&&&&&&&&&&&&&&&&&",
"% $$@@@@@&&&&&&&&&&&&&&&&&&&&&&&",
"%o$@@@@@@@&&&&&&&&&&&&&&&&&&&&&&",
"%o#$@@@@@@&&&&&&&&&&&&&&&&&&&&&&",
"%o#@@@@@&&&&&&&&&&&&&&&&&&&&&&&&",
"%o$$@@@@&&&&&&&&&&&&&&&&&&&&&&&&",
"% $#@@@@&&&&&&&&&&&&&&&&&&&&&&&&",
" $#$@@@@@@&&&&&&&&&&&&&&&&&&&&&&",
"o$$@@@@@@@&&&&&&&&&&&&&&&&&&&&&&",
"% X$@@@@@&&&&&&&&&&&&&&&&&&&&&&&",
"% $@$@@@@&&&&&&&&&&&&&&&&&&&&&&&"
};
