/* XPM */
static char *result[] = {
/* columns rows colors chars-per-pixel */
"32 32 18 1 ",
"  c #2E0906",
". c #1E2733",
"X c #4F0D14",
"o c #691D18",
"O c #7D3224",
"+ c #24523B",
"@ c #1A7A3E",
"# c #2D404C",
"$ c #2D4C7D",
"% c #A85738",
"& c #1FA04D",
"* c #46BC49",
"= c #9BDB5E",
"- c #3E719E",
"; c #4792B2",
": c #69BED1",
"> c #BDEDE7",
", c None",
/* pixels */
",,,,,,,,,,,,,,,,,,,,,,,,,,,,,,,,",
",,,,,,,,,,,,,,,,,,,,,,,,,,,,,,,,",
",,,,,,,,,,,,,,,,,,,,,,,,,,,,,,,,",
",,,,,,,,,,,,,,,,,,,,,,,,,,,,,,,,",
",,,,,,,,,,,,,,,,,,,,,,,,,,,,,,,,",
",,,,,,,,,,,,,,,,,,,,,,,,,,,,,,,,",
",,,,,,,,,,,,,,,,,,,,,,,,,,,,,,,,",
",,,,,,,,,,,,,,,,,,,,,,,,,,,,,,,,",
",,,,,,,,,,,,,,,,,,,,,,,,,,,,,,,,",
",,,,,,,,,,,,,,,,,,,,,,,,,,,,,,,,",
",,,,,,,,,,,,,,,,,,,,,,,,,,,,,,,,",
",,,,,,,,,,,,,,,,,,,,,,,,,,,,,,,,",
",,,,,,,,,,,,,,,,,,,,,,,,,,,,,,,,",
",,,,,,,,,,,,,,,,,,,,,,,,,,,,,,,,",
",,,,,,,,,,,,,,,,,,,,,,,,,,,,,,,,",
",,,,,,,,,,,,,,,,,,,,,,,,,,,,,,,,",
",,,,,,,,,,,,,,,,,,,,,,,,,,,,,,,,",
",,,,,,,,,,,,,,,,,,,,,,,,,,,,,,,,",
",,,,,,,,,,,,,,,,,,,,,,,,,,,,,,,,",
",,,,,,,,,,,,,,&&,,,,,,,,,,,,,,,,",
",,,,,,,,,,,,,&&&&&,,,,,,&,,,,,,&",
"&,,&&,,&&&,&,&&&&&,,&,&&&&&&&,&&",
"&&&&&&&&&&&&&&&&&&&&&&&&&&&&&&&&",
"&&&&&&&&&&&&&&&&&&&&&&&&&&&&&&&&",
"&=&*&&&&&=&=&=&*&&*=&=&&&&&&&&&=",
"==&=&*&&==&&==&**&&=&&=&=&=*=&=&",
"+==@=*==***@**==&==@=*==**==*=@=",
".#..==.##.@@&.==##..==.####.==..",
"o%%%#.XXXX.#.X#.XXOO#.%%%OOX.#%%",
"O%%%%%oooXXXXXXoooOOo%%%%OOO%%%%",
">OOOXooo %%OOX>>>>o %>>>>>OO>>>>",
";>>>>>>>>>>>>>;::->>>--::$>>::::"
};
